<?xml version="1.0" encoding="utf-8"?>
<!-- Generator: Adobe Illustrator 25.2.1, SVG Export Plug-In . SVG Version: 6.00 Build 0)  -->
<svg version="1.1" id="Layer_1" xmlns="http://www.w3.org/2000/svg" xmlns:xlink="http://www.w3.org/1999/xlink" x="0px" y="0px"
	 viewBox="0 0 1020 760" style="enable-background:new 0 0 1020 760;" xml:space="preserve">
<style type="text/css">
	.st0{fill:#3C3C3B;}
	.st1{fill:#585857;}
	.st2{fill:url(#SVGID_1_);}
	.st3{fill:#E85B0D;}
	.st4{fill:none;stroke:#585857;stroke-width:1.5764;stroke-miterlimit:10;}
	.st5{fill:url(#SVGID_2_);}
	.st6{fill:url(#SVGID_3_);}
</style>
<g>
	<g>
		<path class="st0" d="M483.9,593.4h-0.4v9.1h-1.7v-9.1h-0.3l-4.6-11h1.6l3.9,9.3h0.5l3.9-9.3h1.6L483.9,593.4z"/>
		<path class="st0" d="M498,598.6c0,0.9-0.2,1.6-0.5,2.1s-0.7,1-1.2,1.2s-0.9,0.5-1.4,0.6c-0.5,0.1-0.9,0.1-1.3,0.1s-0.8,0-1.3-0.1
			c-0.5-0.1-1-0.3-1.4-0.6s-0.9-0.7-1.2-1.2s-0.5-1.2-0.5-2.1V592c0-0.9,0.2-1.6,0.5-2.1s0.7-1,1.2-1.2s0.9-0.5,1.4-0.6
			c0.5-0.1,0.9-0.1,1.3-0.1s0.8,0,1.3,0.1c0.5,0.1,1,0.3,1.4,0.6s0.9,0.7,1.2,1.2s0.5,1.2,0.5,2.1V598.6z M496.7,598.4v-6.2
			c0-0.6-0.1-1.1-0.3-1.5s-0.5-0.7-0.8-0.9s-0.6-0.3-1-0.4c-0.4-0.1-0.7-0.1-0.9-0.1s-0.5,0-0.9,0.1c-0.4,0.1-0.7,0.2-1,0.4
			c-0.3,0.2-0.6,0.5-0.8,0.9c-0.2,0.4-0.3,0.9-0.3,1.5v6.2c0,0.6,0.1,1.1,0.3,1.5s0.5,0.7,0.8,0.9c0.3,0.2,0.7,0.3,1,0.4
			c0.4,0.1,0.7,0.1,0.9,0.1s0.5,0,0.9-0.1c0.4-0.1,0.7-0.2,1-0.4s0.6-0.5,0.8-0.9C496.6,599.5,496.7,599,496.7,598.4z"/>
		<path class="st0" d="M501.8,600.4c-0.2-0.5-0.4-1-0.4-1.5s-0.1-1-0.1-1.5v-9.3h1.5v10.2c0,0.5,0.1,0.9,0.2,1.3
			c0.1,0.4,0.3,0.7,0.6,0.9c0.2,0.2,0.5,0.4,0.8,0.6c0.3,0.1,0.6,0.2,1,0.2c0.6,0,1.2-0.1,1.9-0.3c0.6-0.2,1.1-0.5,1.5-0.7v-12.2
			h1.5v12.9l0.6,0.6l-1,1l-0.9-0.9c-0.6,0.3-1.1,0.5-1.8,0.7c-0.6,0.1-1.2,0.2-1.7,0.2c-0.7,0-1.4-0.2-2-0.5
			S502.2,601.3,501.8,600.4z"/>
		<path class="st0" d="M521.3,589l-0.8,1.2c-0.3-0.2-0.6-0.3-0.8-0.5s-0.4-0.2-0.6-0.2c-0.2-0.1-0.3-0.1-0.5-0.1s-0.3,0-0.5,0
			c-0.3,0-0.7,0.1-1.2,0.2s-1,0.5-1.5,0.9v11.9h-1.4v-12.7l-0.8-0.8l1-1l1,1c0.6-0.5,1.1-0.8,1.6-0.9c0.5-0.1,0.9-0.2,1.3-0.2
			c0.4,0,0.8,0.1,1.3,0.2C519.8,588.3,520.5,588.6,521.3,589z"/>
		<path class="st0" d="M536.3,588.7v-6.3h1.4v18.7l0.6,0.6l-1,1l-0.9-0.9c-0.6,0.3-1.2,0.6-1.9,0.7c-0.7,0.1-1.2,0.2-1.6,0.2
			c-0.5,0-1-0.1-1.5-0.3c-0.5-0.2-0.9-0.5-1.2-0.9s-0.6-0.8-0.8-1.3s-0.3-1-0.3-1.6V592c0-0.6,0.1-1.1,0.3-1.6s0.5-0.9,0.8-1.3
			s0.8-0.7,1.2-0.9s1-0.3,1.5-0.3c0.3,0,0.8,0,1.3,0.1C534.9,588.1,535.5,588.3,536.3,588.7z M536.3,600.3v-9.9
			c-0.7-0.4-1.3-0.7-1.9-0.8c-0.6-0.1-1-0.2-1.4-0.2c-0.7,0-1.2,0.2-1.7,0.7s-0.7,1.1-0.7,1.8v7c0,0.3,0.1,0.7,0.2,1
			s0.3,0.6,0.5,0.8s0.5,0.4,0.8,0.5s0.6,0.2,0.9,0.2c0.2,0,0.4,0,0.8-0.1s0.7-0.1,1-0.2c0.3-0.1,0.7-0.2,1-0.3
			C536,600.6,536.2,600.5,536.3,600.3z"/>
		<path class="st0" d="M549.5,601.1l0.5,0.5l-1,1l-0.8-0.8c-0.6,0.3-1.2,0.6-1.9,0.7s-1.2,0.2-1.6,0.2c-0.5,0-1-0.1-1.5-0.3
			c-0.5-0.2-0.9-0.5-1.2-0.9c-0.3-0.4-0.6-0.8-0.8-1.3c-0.2-0.5-0.3-1-0.3-1.6v-1.6c0-0.6,0.1-1.1,0.3-1.6s0.5-0.9,0.8-1.3
			c0.3-0.4,0.8-0.7,1.2-0.9c0.5-0.2,1-0.3,1.5-0.3c0.1,0,0.3,0,0.6,0c0.3,0,0.6,0.1,0.9,0.1s0.6,0.1,1,0.2c0.3,0.1,0.6,0.2,0.8,0.4
			v-1c0-0.4-0.1-0.9-0.2-1.3s-0.4-0.8-0.7-1.2c-0.3-0.3-0.6-0.6-1-0.8c-0.4-0.2-0.8-0.3-1.2-0.3c-0.2,0-0.4,0-0.8,0.1
			c-0.4,0.1-0.8,0.2-1.2,0.3c-0.5,0.1-1,0.2-1.6,0.4l-0.4-1.3c0.6-0.2,1.2-0.3,1.8-0.4c0.5-0.1,0.9-0.2,1.3-0.3
			c0.4-0.1,0.8-0.1,1-0.1c0.6,0,1.2,0.1,1.7,0.4c0.5,0.3,1,0.7,1.4,1.1s0.7,1,1,1.6c0.2,0.6,0.3,1.2,0.3,1.8L549.5,601.1z
			 M548.1,595.6c0,0-0.1-0.1-0.3-0.2c-0.2-0.1-0.4-0.2-0.7-0.3c-0.3-0.1-0.7-0.2-1-0.3s-0.8-0.2-1.3-0.2c-0.3,0-0.6,0.1-0.9,0.2
			c-0.3,0.1-0.5,0.3-0.8,0.5s-0.4,0.5-0.5,0.8s-0.2,0.6-0.2,1v1.8c0,0.3,0.1,0.7,0.2,1c0.1,0.3,0.3,0.6,0.5,0.8
			c0.2,0.2,0.5,0.4,0.8,0.5s0.6,0.2,0.9,0.2c0.3,0,0.6,0,1-0.2s0.7-0.2,1.1-0.4c0.4-0.2,0.8-0.3,1.2-0.5L548.1,595.6L548.1,595.6z"
			/>
		<path class="st0" d="M554,598.8v-9.2h-2.4v-1.4h2.4v-5.7h1.5v5.7h2.7v1.4h-2.7v9.4c0,0.8,0.2,1.3,0.6,1.6c0.4,0.3,0.9,0.5,1.4,0.5
			h0.6v1.5h-0.8c-0.5,0-0.9-0.1-1.3-0.2c-0.4-0.1-0.8-0.4-1.1-0.7s-0.5-0.7-0.7-1.2C554.1,600.1,554,599.5,554,598.8z"/>
		<path class="st0" d="M568.6,601.1l0.5,0.5l-1,1l-0.8-0.8c-0.6,0.3-1.2,0.6-1.9,0.7s-1.2,0.2-1.6,0.2c-0.5,0-1-0.1-1.5-0.3
			c-0.5-0.2-0.9-0.5-1.2-0.9c-0.3-0.4-0.6-0.8-0.8-1.3c-0.2-0.5-0.3-1-0.3-1.6v-1.6c0-0.6,0.1-1.1,0.3-1.6s0.5-0.9,0.8-1.3
			c0.3-0.4,0.8-0.7,1.2-0.9c0.5-0.2,1-0.3,1.5-0.3c0.1,0,0.3,0,0.6,0c0.3,0,0.6,0.1,0.9,0.1s0.6,0.1,1,0.2c0.3,0.1,0.6,0.2,0.8,0.4
			v-1c0-0.4-0.1-0.9-0.2-1.3s-0.4-0.8-0.7-1.2c-0.3-0.3-0.6-0.6-1-0.8c-0.4-0.2-0.8-0.3-1.2-0.3c-0.2,0-0.4,0-0.8,0.1
			c-0.4,0.1-0.8,0.2-1.2,0.3c-0.5,0.1-1,0.2-1.6,0.4l-0.4-1.3c0.6-0.2,1.2-0.3,1.8-0.4c0.5-0.1,0.9-0.2,1.3-0.3
			c0.4-0.1,0.8-0.1,1-0.1c0.6,0,1.2,0.1,1.7,0.4c0.5,0.3,1,0.7,1.4,1.1s0.7,1,1,1.6c0.2,0.6,0.3,1.2,0.3,1.8L568.6,601.1z
			 M567.2,595.6c0,0-0.1-0.1-0.3-0.2c-0.2-0.1-0.4-0.2-0.7-0.3c-0.3-0.1-0.7-0.2-1-0.3s-0.8-0.2-1.3-0.2c-0.3,0-0.6,0.1-0.9,0.2
			c-0.3,0.1-0.5,0.3-0.8,0.5s-0.4,0.5-0.5,0.8s-0.2,0.6-0.2,1v1.8c0,0.3,0.1,0.7,0.2,1c0.1,0.3,0.3,0.6,0.5,0.8
			c0.2,0.2,0.5,0.4,0.8,0.5s0.6,0.2,0.9,0.2c0.3,0,0.6,0,1-0.2s0.7-0.2,1.1-0.4c0.4-0.2,0.8-0.3,1.2-0.5L567.2,595.6L567.2,595.6z"
			/>
		<path class="st0" d="M586.8,598.6c0,0.9-0.2,1.6-0.5,2.1s-0.7,1-1.2,1.2s-0.9,0.5-1.4,0.6c-0.5,0.1-0.9,0.1-1.3,0.1
			s-0.8,0-1.3-0.1c-0.5-0.1-1-0.3-1.4-0.6s-0.8-0.7-1.2-1.2s-0.5-1.2-0.5-2.1V592c0-0.9,0.2-1.6,0.5-2.1s0.7-1,1.2-1.2
			s0.9-0.5,1.4-0.6c0.5-0.1,0.9-0.1,1.3-0.1s0.8,0,1.3,0.1c0.5,0.1,1,0.3,1.4,0.6s0.8,0.7,1.2,1.2s0.5,1.2,0.5,2.1V598.6z
			 M585.4,598.4v-6.2c0-0.6-0.1-1.1-0.3-1.5c-0.2-0.4-0.5-0.7-0.8-0.9s-0.7-0.3-1-0.4s-0.7-0.1-0.9-0.1s-0.5,0-0.9,0.1
			c-0.4,0.1-0.7,0.2-1,0.4c-0.3,0.2-0.6,0.5-0.8,0.9c-0.2,0.4-0.3,0.9-0.3,1.5v6.2c0,0.6,0.1,1.1,0.3,1.5c0.2,0.4,0.5,0.7,0.8,0.9
			c0.3,0.2,0.7,0.3,1,0.4c0.3,0.1,0.7,0.1,0.9,0.1s0.5,0,0.9-0.1c0.3-0.1,0.7-0.2,1-0.4s0.6-0.5,0.8-0.9
			C585.3,599.5,585.4,599,585.4,598.4z"/>
		<path class="st0" d="M598.6,590.3c0.2,0.5,0.4,1,0.4,1.5c0,0.5,0.1,1,0.1,1.5v9.3h-1.5v-10.2c0-1-0.3-1.7-0.8-2.2
			s-1.1-0.8-1.8-0.8c-0.4,0-0.8,0.1-1.4,0.2c-0.6,0.1-1.2,0.4-1.9,0.9v12.2h-1.5v-13l-0.6-0.6l1-1l0.9,0.9c1-0.6,2-0.9,3-0.9
			c0.9,0,1.7,0.2,2.4,0.5C597.7,588.8,598.2,589.4,598.6,590.3z"/>
		<path class="st0" d="M609.8,598.8v-9.2h-2.4v-1.4h2.4v-5.7h1.5v5.7h2.7v1.4h-2.7v9.4c0,0.8,0.2,1.3,0.6,1.6
			c0.4,0.3,0.9,0.5,1.4,0.5h0.6v1.5h-0.8c-0.5,0-0.9-0.1-1.3-0.2c-0.4-0.1-0.8-0.4-1.1-0.7s-0.5-0.7-0.7-1.2
			C609.9,600.1,609.8,599.5,609.8,598.8z"/>
		<path class="st0" d="M623.5,602.5v-10.7c0-0.7-0.2-1.3-0.7-1.8s-1-0.7-1.7-0.7c-0.2,0-0.4,0-0.6,0c-0.2,0-0.5,0.1-0.8,0.2
			c-0.3,0.1-0.6,0.2-0.9,0.3c-0.3,0.1-0.6,0.3-0.9,0.5v12.2h-1.5v-20.1h1.4v6.3c0.8-0.4,1.4-0.6,2-0.7c0.6-0.1,1-0.1,1.3-0.1
			c0.5,0,1,0.1,1.5,0.3s0.9,0.5,1.2,0.9c0.3,0.4,0.6,0.8,0.8,1.3s0.3,1,0.3,1.6v10.6L623.5,602.5L623.5,602.5z"/>
		<path class="st0" d="M628.3,592c0-0.6,0.1-1.1,0.3-1.6s0.5-0.9,0.8-1.3s0.8-0.7,1.2-0.9s1-0.3,1.5-0.3h1c0.5,0,1,0.1,1.5,0.3
			c0.5,0.2,0.9,0.5,1.3,0.9s0.7,0.8,0.8,1.3c0.2,0.5,0.3,1,0.3,1.6v1c0,0.8-0.1,1.5-0.4,2c-0.3,0.5-0.7,1-1.2,1.3
			c-0.5,0.3-1.1,0.6-1.7,0.7c-0.7,0.1-1.4,0.2-2.1,0.2c-0.3,0-0.6,0-0.9,0s-0.6,0-1-0.1v1.7c0.1,0.8,0.5,1.4,1.1,1.8s1.2,0.7,2,0.7
			c0.1,0,0.3,0,0.7-0.1s0.8-0.2,1.3-0.3c0.5-0.1,1.1-0.2,1.8-0.4l0.3,1.5c-0.7,0.2-1.3,0.3-1.9,0.4c-0.5,0.1-1,0.2-1.4,0.3
			s-0.7,0.1-0.8,0.1c-0.6,0-1.2-0.1-1.8-0.3c-0.6-0.2-1-0.5-1.5-0.9c-0.4-0.4-0.8-0.9-1-1.4c-0.2-0.5-0.4-1.1-0.4-1.8L628.3,592
			L628.3,592z M633.2,595.6L633.2,595.6c0.4,0,0.7-0.1,1-0.2c0.3-0.1,0.5-0.3,0.8-0.6c0.2-0.2,0.4-0.5,0.5-0.8s0.2-0.6,0.2-1v-1.2
			c0-0.5-0.1-0.8-0.3-1.2c-0.2-0.3-0.4-0.6-0.7-0.8c-0.3-0.2-0.6-0.3-1-0.4s-0.8-0.1-1.2-0.1c-0.4,0-0.7,0.1-1,0.2
			c-0.3,0.1-0.6,0.3-0.9,0.5s-0.5,0.5-0.6,0.8c-0.2,0.3-0.2,0.7-0.2,1v3.8L633.2,595.6z"/>
		<path class="st0" d="M654.1,598.6c0,1.4-0.3,2.5-1.1,3.2s-1.6,1.1-2.7,1.1c-0.3,0-0.7,0-1.1-0.1s-0.7-0.2-1.1-0.3l-2.4-1l0.6-1.3
			l2.4,1c0.3,0.1,0.6,0.2,0.8,0.2c0.3,0,0.5,0.1,0.8,0.1c0.7,0,1.2-0.3,1.7-0.8s0.7-1.3,0.7-2.2c0-0.4-0.1-0.8-0.2-1
			s-0.4-0.5-0.6-0.7s-0.5-0.3-0.8-0.4s-0.6-0.1-0.8-0.1c-0.7,0-1.3-0.1-1.9-0.2c-0.6-0.1-1-0.3-1.4-0.7s-0.7-0.7-0.9-1.2
			c-0.2-0.5-0.3-1.2-0.3-2c0-1.4,0.4-2.5,1.1-3.2s1.7-1.1,2.8-1.1c0.3,0,0.7,0,1,0.1c0.3,0.1,0.7,0.2,1.1,0.3l1,0.3l-0.5,1.2
			c-0.5-0.2-0.8-0.3-1.1-0.4c-0.3-0.1-0.5-0.2-0.7-0.2s-0.3-0.1-0.4-0.1c-0.1,0-0.2,0-0.3,0h-0.1c-0.7,0-1.3,0.3-1.8,0.8
			s-0.8,1.3-0.8,2.2c0,0.4,0.1,0.8,0.3,1.1s0.4,0.6,0.7,0.8c0.3,0.2,0.5,0.4,0.8,0.5s0.6,0.2,0.8,0.2c0.6,0,1.2,0,1.7,0.2
			c0.5,0.1,1,0.3,1.4,0.6s0.7,0.7,0.9,1.2C654,597.2,654.1,597.8,654.1,598.6z"/>
		<path class="st0" d="M664,591.7c0-0.3-0.1-0.7-0.2-1c-0.2-0.3-0.4-0.5-0.7-0.8c-0.3-0.2-0.6-0.4-0.9-0.5s-0.7-0.2-1-0.2
			c-0.2,0-0.4,0-0.7,0.1c-0.3,0.1-0.6,0.1-0.8,0.2s-0.6,0.2-0.8,0.3s-0.5,0.2-0.7,0.4v12.2h-1.5v-13l-0.6-0.6l1-1l0.9,0.9
			c0.5-0.3,1-0.5,1.5-0.7s1-0.3,1.5-0.3c0.9,0,1.7,0.2,2.4,0.5c0.7,0.4,1.2,0.9,1.5,1.7c0.3-0.5,0.6-0.8,0.9-1.1
			c0.3-0.3,0.7-0.5,1.1-0.7c0.4-0.2,0.8-0.3,1.1-0.3c0.4-0.1,0.7-0.1,1.1-0.1c0.7,0,1.3,0.1,1.8,0.4s0.9,0.6,1.2,1
			c0.3,0.4,0.5,0.8,0.7,1.3c0.1,0.5,0.2,0.9,0.2,1.4v10.6h-1.5v-10.4c0-0.4,0-0.7-0.1-1c-0.1-0.3-0.2-0.6-0.4-0.9
			c-0.2-0.2-0.4-0.5-0.8-0.6c-0.3-0.2-0.7-0.2-1.2-0.2c-1.2,0-2.1,0.3-2.6,1s-0.8,1.6-0.8,2.9v9.3H664L664,591.7L664,591.7z"/>
		<path class="st0" d="M684.5,601.1l0.5,0.5l-1,1l-0.8-0.8c-0.6,0.3-1.2,0.6-1.9,0.7s-1.2,0.2-1.6,0.2c-0.5,0-1-0.1-1.5-0.3
			c-0.5-0.2-0.9-0.5-1.2-0.9c-0.3-0.4-0.6-0.8-0.8-1.3c-0.2-0.5-0.3-1-0.3-1.6v-1.6c0-0.6,0.1-1.1,0.3-1.6s0.5-0.9,0.8-1.3
			c0.3-0.4,0.8-0.7,1.2-0.9c0.5-0.2,1-0.3,1.5-0.3c0.1,0,0.3,0,0.6,0c0.3,0,0.6,0.1,0.9,0.1s0.6,0.1,1,0.2c0.3,0.1,0.6,0.2,0.8,0.4
			v-1c0-0.4-0.1-0.9-0.2-1.3s-0.4-0.8-0.7-1.2c-0.3-0.3-0.6-0.6-1-0.8c-0.4-0.2-0.8-0.3-1.2-0.3c-0.2,0-0.4,0-0.8,0.1
			c-0.4,0.1-0.8,0.2-1.2,0.3c-0.5,0.1-1,0.2-1.6,0.4l-0.4-1.3c0.6-0.2,1.2-0.3,1.8-0.4c0.5-0.1,0.9-0.2,1.3-0.3
			c0.4-0.1,0.8-0.1,1-0.1c0.6,0,1.2,0.1,1.7,0.4c0.5,0.3,1,0.7,1.4,1.1s0.7,1,1,1.6c0.2,0.6,0.3,1.2,0.3,1.8L684.5,601.1z
			 M683.1,595.6c0,0-0.1-0.1-0.3-0.2c-0.2-0.1-0.4-0.2-0.7-0.3c-0.3-0.1-0.7-0.2-1-0.3s-0.8-0.2-1.3-0.2c-0.3,0-0.6,0.1-0.9,0.2
			c-0.3,0.1-0.5,0.3-0.8,0.5s-0.4,0.5-0.5,0.8s-0.2,0.6-0.2,1v1.8c0,0.3,0.1,0.7,0.2,1c0.1,0.3,0.3,0.6,0.5,0.8
			c0.2,0.2,0.5,0.4,0.8,0.5s0.6,0.2,0.9,0.2c0.3,0,0.6,0,1-0.2s0.7-0.2,1.1-0.4c0.4-0.2,0.8-0.3,1.2-0.5L683.1,595.6L683.1,595.6z"
			/>
		<path class="st0" d="M695.5,589l-0.8,1.2c-0.3-0.2-0.6-0.3-0.8-0.5s-0.4-0.2-0.6-0.2c-0.2-0.1-0.3-0.1-0.5-0.1s-0.3,0-0.5,0
			c-0.3,0-0.7,0.1-1.2,0.2s-1,0.5-1.5,0.9v11.9h-1.4v-12.7l-0.8-0.8l1-1l1,1c0.6-0.5,1.1-0.8,1.6-0.9c0.5-0.1,0.9-0.2,1.3-0.2
			c0.4,0,0.8,0.1,1.3,0.2C694,588.3,694.7,588.6,695.5,589z"/>
		<path class="st0" d="M698.7,598.8v-9.2h-2.4v-1.4h2.4v-5.7h1.5v5.7h2.7v1.4h-2.7v9.4c0,0.8,0.2,1.3,0.6,1.6
			c0.4,0.3,0.9,0.5,1.4,0.5h0.6v1.5h-0.8c-0.5,0-0.9-0.1-1.3-0.2c-0.4-0.1-0.8-0.4-1.1-0.7s-0.5-0.7-0.7-1.2
			C698.8,600.1,698.7,599.5,698.7,598.8z"/>
		<path class="st0" d="M712.4,598.8v-9.2H710v-1.4h2.4v-5.7h1.5v5.7h2.7v1.4h-2.7v9.4c0,0.8,0.2,1.3,0.6,1.6
			c0.4,0.3,0.9,0.5,1.4,0.5h0.6v1.5h-0.8c-0.5,0-0.9-0.1-1.3-0.2c-0.4-0.1-0.8-0.4-1.1-0.7s-0.5-0.7-0.7-1.2
			C712.5,600.1,712.4,599.5,712.4,598.8z"/>
		<path class="st0" d="M726.4,589l-0.8,1.2c-0.3-0.2-0.6-0.3-0.8-0.5s-0.4-0.2-0.6-0.2c-0.2-0.1-0.3-0.1-0.5-0.1s-0.3,0-0.5,0
			c-0.3,0-0.7,0.1-1.2,0.2s-1,0.5-1.5,0.9v11.9H719v-12.7l-0.8-0.8l1-1l1,1c0.6-0.5,1.1-0.8,1.6-0.9c0.5-0.1,0.9-0.2,1.3-0.2
			c0.4,0,0.8,0.1,1.3,0.2C724.9,588.3,725.5,588.6,726.4,589z"/>
		<path class="st0" d="M736.5,601.1l0.5,0.5l-1,1l-0.8-0.8c-0.6,0.3-1.2,0.6-1.9,0.7s-1.2,0.2-1.6,0.2c-0.5,0-1-0.1-1.5-0.3
			c-0.5-0.2-0.9-0.5-1.2-0.9c-0.3-0.4-0.6-0.8-0.8-1.3c-0.2-0.5-0.3-1-0.3-1.6v-1.6c0-0.6,0.1-1.1,0.3-1.6s0.5-0.9,0.8-1.3
			c0.3-0.4,0.8-0.7,1.2-0.9c0.5-0.2,1-0.3,1.5-0.3c0.1,0,0.3,0,0.6,0c0.3,0,0.6,0.1,0.9,0.1s0.6,0.1,1,0.2c0.3,0.1,0.6,0.2,0.8,0.4
			v-1c0-0.4-0.1-0.9-0.2-1.3s-0.4-0.8-0.7-1.2c-0.3-0.3-0.6-0.6-1-0.8c-0.4-0.2-0.8-0.3-1.2-0.3c-0.2,0-0.4,0-0.8,0.1
			c-0.4,0.1-0.8,0.2-1.2,0.3c-0.5,0.1-1,0.2-1.6,0.4l-0.4-1.3c0.6-0.2,1.2-0.3,1.8-0.4c0.5-0.1,0.9-0.2,1.3-0.3
			c0.4-0.1,0.8-0.1,1-0.1c0.6,0,1.2,0.1,1.7,0.4c0.5,0.3,1,0.7,1.4,1.1s0.7,1,1,1.6c0.2,0.6,0.3,1.2,0.3,1.8L736.5,601.1z
			 M735,595.6c0,0-0.1-0.1-0.3-0.2c-0.2-0.1-0.4-0.2-0.7-0.3c-0.3-0.1-0.7-0.2-1-0.3s-0.8-0.2-1.3-0.2c-0.3,0-0.6,0.1-0.9,0.2
			c-0.3,0.1-0.5,0.3-0.8,0.5s-0.4,0.5-0.5,0.8s-0.2,0.6-0.2,1v1.8c0,0.3,0.1,0.7,0.2,1c0.1,0.3,0.3,0.6,0.5,0.8
			c0.2,0.2,0.5,0.4,0.8,0.5s0.6,0.2,0.9,0.2c0.3,0,0.6,0,1-0.2s0.7-0.2,1.1-0.4c0.4-0.2,0.8-0.3,1.2-0.5L735,595.6L735,595.6z"/>
		<path class="st0" d="M741.2,598.3c0,0.5,0.1,0.9,0.2,1.2c0.2,0.4,0.4,0.7,0.7,1c0.3,0.3,0.6,0.5,1,0.6c0.4,0.1,0.8,0.2,1.2,0.2
			c0.2,0,0.4,0,0.7-0.1s0.6-0.1,0.8-0.2c0.3-0.1,0.7-0.2,1-0.3l0.5,1.3c-0.4,0.1-0.8,0.2-1.1,0.3c-0.3,0.1-0.6,0.1-1,0.2
			c-0.4,0.1-0.7,0.1-0.9,0.1c-0.6,0-1.2-0.1-1.8-0.3c-0.5-0.2-1-0.5-1.4-0.9s-0.7-0.9-1-1.4c-0.2-0.5-0.4-1.2-0.4-1.8v-6
			c0-0.7,0.1-1.2,0.4-1.8s0.6-1,1-1.4s0.9-0.7,1.4-0.9c0.5-0.2,1.1-0.3,1.8-0.3c0.3,0,0.6,0,1,0.1c0.3,0.1,0.7,0.2,0.9,0.3
			c0.3,0.1,0.7,0.2,1,0.3l-0.3,1.2c-0.3-0.1-0.6-0.2-0.9-0.3c-0.3-0.1-0.5-0.1-0.8-0.2c-0.3-0.1-0.6-0.1-0.8-0.1
			c-0.8,0-1.6,0.3-2.2,0.8s-0.9,1.3-0.9,2.2V598.3z"/>
		<path class="st0" d="M755.4,602.5l-3.1-6.9h-1v6.9h-1.5v-20.1h1.5v11.5h0.9l3.1-5.7h1.6l-3.5,6.6l3.6,7.7L755.4,602.5L755.4,602.5
			z"/>
	</g>
	<g>
		<path class="st1" d="M321.6,527.1h-10.5l-25.7-47.4h-21.5v47.4h-9.4v-104h36.2c15.8,0,28.6,12.8,28.6,28.7
			c0,14.1-10.5,25.7-24.3,27.5L321.6,527.1z M290.4,471.7c11.2,0,20.2-9,20.2-20.2c0-11.1-9.1-20.1-20.2-20.1h-26.5v40.4H290.4z"/>
		<path class="st1" d="M401.8,504.5h-55.9l-8.7,22.6h-10.3l41.8-104H379l41.8,104h-10.3L401.8,504.5z M398.6,496.4l-24.8-63.5
			l-24.7,63.5H398.6z"/>
		<path class="st1" d="M435.1,423.1h9.4v104h-9.4V423.1z"/>
		<path class="st1" d="M466.7,423.1h9.4v95.6h39.2v8.5h-48.7V423.1z"/>
		<g>
			
				<linearGradient id="SVGID_1_" gradientUnits="userSpaceOnUse" x1="615.8396" y1="244.5495" x2="558.2318" y2="305.3225" gradientTransform="matrix(1 0 0 -1 0 759.8898)">
				<stop  offset="0" style="stop-color:#E5342A"/>
				<stop  offset="0.4924" style="stop-color:#E84F1C"/>
				<stop  offset="1" style="stop-color:#F29102"/>
			</linearGradient>
			<path class="st2" d="M597.2,528.2h-8.9L574.7,496l-13.5,32.2h-8.9l-33-77.8h9.8l27.7,65.6l13.2-31.1l-14.6-34.5h9.5l27.6,65.6
				l27.6-65.6h9.8L597.2,528.2z"/>
		</g>
		<g>
			<polygon class="st3" points="670.1,423.1 665.5,434.5 689.7,496.4 640.3,496.4 637,504.5 692.9,504.5 701.6,527.1 711.9,527.1 
							"/>
		</g>
		<path class="st3" d="M726.2,423.1h9.4v104h-9.4V423.1z"/>
	</g>
	<line class="st4" x1="757.4" y1="572.9" x2="232.6" y2="572.9"/>
	<g>
		
			<linearGradient id="SVGID_2_" gradientUnits="userSpaceOnUse" x1="431.034" y1="635.345" x2="661.827" y2="404.5518" gradientTransform="matrix(1 0 0 -1 0 759.8898)">
			<stop  offset="0" style="stop-color:#E5342A"/>
			<stop  offset="0.3743" style="stop-color:#E84F1C"/>
			<stop  offset="1" style="stop-color:#F29102"/>
		</linearGradient>
		<path class="st5" d="M620,273L620,273c-0.2-0.7-0.5-1.3-0.9-1.7l12.6-31.6l-3.7-5.9c2-1.6,3.3-4,3.3-6.8c0-2.4-1-4.6-2.6-6.1
			l2.8-4.6l-22.5-67l-19.5-4.1c-0.1-1.3-1-2.5-2.2-2.9l1.2-17l-44.9-22.6l-8.6-0.4c-0.5-2.2-2.4-3.9-4.8-3.9c-2.1,0-3.9,1.3-4.6,3.2
			l-11.7-1.2l-3.4,4.3c-0.1,0-0.2,0-0.3,0c-1.9,0-3.3,1.5-3.3,3.3c0,0.1,0,0.2,0,0.3l-8.1,7.2v32.8c-3.2,0.5-5.6,3.2-5.6,6.5
			c0,3.3,2.4,6,5.6,6.5v13.2c-1.4,0.4-2.4,1.7-2.4,3.2s1,2.8,2.4,3.2v28.7c-1.4,0.4-2.4,1.7-2.4,3.2s1,2.8,2.4,3.2v33.6
			c-2.5,0.6-4.3,2.8-4.3,5.5c0,2.6,1.8,4.9,4.3,5.5v45.8c-1.4,0.4-2.4,1.7-2.4,3.2s1,2.8,2.4,3.2v18.7c-1.4,0.4-2.4,1.7-2.4,3.2
			c0,1.9,1.5,3.3,3.3,3.3c0.3,0,0.5,0,0.8-0.1l11.7,20.3c-0.6,0.6-0.9,1.4-0.9,2.3c0,0.3,0,0.5,0.1,0.8l0,0.1
			c0.4,1.4,1.7,2.4,3.2,2.4s2.8-1,3.2-2.4h26.1l19.9-10.3l-5.7-11.5c0.2,0,0.3-0.1,0.5-0.1l0.3-0.1c1.1-0.5,1.9-1.6,2-2.9l15.5-7.1
			l24.9-31l-3.2-5.8c1.7-1.3,2.9-3.3,2.9-5.6c0-1-0.2-1.9-0.6-2.8l13.9-8c0.6,0.5,1.3,0.8,2.1,0.8c1.8,0,3.3-1.5,3.3-3.3
			C620,273.4,619.9,273.2,620,273L620,273z M589.3,147.1l18.5,3.9l21.8,65.2l-2.3,3.7c-1.3-0.8-2.9-1.3-4.6-1.3
			c-0.9,0-1.7,0.2-2.5,0.4l-31.8-70.9C588.8,147.8,589.1,147.4,589.3,147.1z M618.6,219.6c-0.9,0.5-1.7,1.1-2.3,1.9l-39.3-29.7
			c1.5-2.3,2.4-5,2.4-7.9c0-5.1-2.7-9.5-6.7-12l6.7-12.1l6.2-11.1c0.2,0.1,0.5,0.1,0.8,0.1c0.2,0,0.3,0,0.5-0.1L618.6,219.6z
			 M523.4,334.1c-0.3-2-1.7-3.6-3.6-4.2l6-39.6h0c0.7,0,1.4-0.1,2-0.4l27.6,44.1c-0.5,0.5-0.8,1-0.9,1.7L523.4,334.1z M521.1,287.9
			l-19.5,18.8c-0.2-0.1-0.5-0.2-0.8-0.3v-45.7c0.8-0.1,1.5-0.3,2.2-0.7l15.4,17.7l2.7,3.1c-0.7,1-1.2,2.2-1.2,3.5
			C520,285.8,520.4,287,521.1,287.9z M504.5,259c0.9-1,1.5-2.3,1.5-3.8c0-2.9-2.3-5.3-5.2-5.6v-33.4c0.8-0.2,1.5-0.8,2-1.5
			l48.6,12.5c0,0.2-0.1,0.4-0.1,0.6c0,2.3,1.1,4.3,2.8,5.5L528,279c-0.7-0.3-1.4-0.4-2.2-0.4c-1.2,0-2.4,0.4-3.3,1.1L504.5,259z
			 M505.8,157.8l19,6c0,0,0,0.1,0,0.1c0,0.2,0,0.4,0.1,0.6l-22.5,11.1c-0.4-0.5-1-0.8-1.6-1v-13.2
			C503,161.1,504.9,159.7,505.8,157.8z M531.5,163.8l25.8-8.2l26.1-8.3c0.1,0.2,0.3,0.4,0.4,0.5l-5,8.9l-7.9,14.3
			c-1.8-0.9-3.8-1.3-6-1.3c-5.1,0-9.5,2.7-12.1,6.7l-18.2-9.9l-3.4-1.8C531.5,164.4,531.6,164.2,531.5,163.8
			C531.6,163.9,531.5,163.8,531.5,163.8z M565,227.1c-0.3-2.8-2.2-5-4.7-5.8l3.5-23.1c0.5,0,0.9,0.1,1.3,0.1c4.3,0,8.1-1.9,10.7-4.9
			l20.2,15.2l19.3,14.5c-0.7,1.2-1,2.6-1,4L565,227.1L565,227.1z M536.9,169.7l15.2,8.3c-0.8,1.8-1.3,3.8-1.3,5.9
			c0,6.8,4.7,12.4,11.1,13.9l-3.5,23.1c-0.1,0-0.2,0-0.2,0c-0.7,0-1.4,0.1-2,0.3l-14.6-31.1l-11.2-23.8c0.1-0.1,0.1-0.1,0.2-0.2
			L536.9,169.7z M539.8,190.6l14.8,31.4c-1.2,0.8-2.2,2-2.7,3.3l-48.6-12.5c0-1.5-1-2.7-2.4-3.1V181c1.4-0.4,2.4-1.7,2.4-3.2
			c0-0.2,0-0.4-0.1-0.6l22.5-11.1c0.6,0.7,1.5,1.1,2.5,1.1c0.2,0,0.4,0,0.5-0.1L539.8,190.6z M529.4,289c1.3-1.1,2.2-2.7,2.2-4.6
			c0-0.6-0.1-1.2-0.3-1.8l24.7-14.1c0.4,0.4,0.9,0.7,1.4,0.8V333c-0.1,0-0.2,0-0.3,0.1L529.4,289z M555.2,264.8l-0.2,0.5
			c-0.1,0.3-0.1,0.5-0.1,0.8c0,0.3,0,0.5,0.1,0.8L530.5,281c-0.3-0.4-0.6-0.7-1-1l26.3-45.8c0.5,0.2,1,0.3,1.6,0.4v28.4
			C556.4,263.1,555.6,263.9,555.2,264.8z M559.2,234.5c2.9-0.4,5.2-2.7,5.7-5.6h49.5c0.2,0.9,0.6,1.8,1.1,2.6l-54.8,32.1
			c-0.4-0.4-0.9-0.6-1.4-0.8V234.5z M535.2,104.2l8.3,0.4l43.3,21.9l-1.1,15.8c-0.5,0.1-0.9,0.3-1.3,0.6l-26.4-20l-23-17.5
			C535,105,535.1,104.6,535.2,104.2z M514.9,102.4l10.6,1.1c0.1,2.6,2.2,4.8,4.9,4.8c1.3,0,2.5-0.5,3.4-1.4l21.8,16.5l27.6,20.9
			c-0.2,0.4-0.2,0.8-0.2,1.2c0,0,0,0.1,0,0.1l-27.1,8.6l-24.9,7.9c-0.6-0.9-1.6-1.5-2.8-1.5c0,0,0,0-0.1,0l-11-35.5l-4.5-14.4
			c0.7-0.6,1.2-1.5,1.2-2.5c0-1.1-0.5-2-1.3-2.6L514.9,102.4z M507.8,110.2c0.6,0.8,1.5,1.3,2.6,1.3c0.2,0,0.4,0,0.5-0.1l4.3,13.8
			l11.2,35.9c-0.4,0.2-0.7,0.6-1,1l-19-6c0.1-0.4,0.1-0.8,0.1-1.2c0-3.3-2.5-6.1-5.7-6.5v-32L507.8,110.2z M500.9,331.5v-18.7
			c1.4-0.4,2.4-1.7,2.4-3.2c0-0.6-0.2-1.1-0.4-1.6l18.8-18.1l0.8-0.8c0.5,0.3,1,0.6,1.6,0.8l-0.8,5.6l-5.2,34.2
			c-2.4,0.1-4.3,1.8-4.8,4.1h-10.1C502.8,332.7,502,331.8,500.9,331.5z M517.1,358.1c-0.6-0.6-1.4-0.9-2.3-0.9c-0.3,0-0.6,0-0.9,0.1
			L502.3,337c0.4-0.4,0.6-0.8,0.8-1.3l10.2,0.4c0.6,2.2,2.6,3.9,5,3.9c2.3,0,4.2-1.5,4.9-3.6l29.6,1.1L517.1,358.1z M561.7,350.3
			l-17.9,9.3h-25.5l37-21.3c0.3,0.4,0.6,0.7,1,0.9L561.7,350.3z M599.4,298.1l-23.9,29.7l-14.8,6.8c-0.3-0.6-0.9-1.1-1.5-1.4v-64
			c0.5-0.1,1-0.4,1.4-0.8l27.1,15.7c-0.3,0.8-0.5,1.8-0.5,2.7c0,3.9,3.1,7,7,7c0.9,0,1.8-0.2,2.5-0.5L599.4,298.1z M599.7,282.6
			c-1.3-1.6-3.2-2.7-5.5-2.7c-2.2,0-4.2,1.1-5.5,2.7l-26-15.1l50.6,6.5c0,0.2,0.1,0.4,0.2,0.6L599.7,282.6z M617.5,270.4
			c-0.3-0.1-0.5-0.1-0.8-0.1c-1.3,0-2.5,0.8-3,2l-52-6.6c0-0.1,0-0.2-0.1-0.3l55-32.3c1.6,1.6,3.8,2.7,6.2,2.7
			c1.3,0,2.5-0.3,3.7-0.9l3.2,5.1L617.5,270.4z"/>
		
			<linearGradient id="SVGID_3_" gradientUnits="userSpaceOnUse" x1="342.8402" y1="641.3615" x2="583.0512" y2="401.1505" gradientTransform="matrix(1 0 0 -1 0 759.8898)">
			<stop  offset="0" style="stop-color:#E5342A"/>
			<stop  offset="0.3807" style="stop-color:#E84F1C"/>
			<stop  offset="1" style="stop-color:#F29102"/>
		</linearGradient>
		<path class="st6" d="M495.5,212.8c0-3.3-2.5-6-5.7-6.4V181c1.4-0.4,2.4-1.7,2.4-3.2s-1-2.8-2.4-3.2v-16.4c1.4-0.4,2.4-1.7,2.4-3.2
			s-1-2.8-2.4-3.2v-36.2l-8.1-7.2c0-0.1,0-0.2,0-0.3c0-1.8-1.5-3.3-3.3-3.3c-0.1,0-0.2,0-0.3,0l-3.4-4.3l-8.8,0.9
			c-0.9-3.2-3.7-5.5-7.2-5.5c-3.8,0-7,2.9-7.4,6.6l-6.3,0.3l-44.9,22.6l1,13.3c-3.6,0.5-6.4,3.5-6.4,7.3c0,0.1,0,0.2,0,0.3l-15,3.2
			l-22.4,66.9l4.2,6.7c-1.3,1.2-2.1,2.9-2.1,4.8c0,1.9,0.9,3.7,2.2,4.9l-4.3,6.9l12.6,31.6c-0.4,0.5-0.8,1.1-0.9,1.7l0,0l0,0
			c0,0.2,0,0.4,0,0.5c0,1.9,1.5,3.3,3.3,3.3c0.8,0,1.5-0.3,2.1-0.8l15.2,8.7c-0.2,0.6-0.4,1.3-0.4,2c0,1.8,0.9,3.3,2.1,4.3l-4,7.2
			l24.9,31l15.5,7.1c0,1.3,0.8,2.4,2,2.9l0.3,0.1c0.2,0,0.3,0.1,0.5,0.1l-5.6,11.5l19.9,10.3h26.1c0.4,1.4,1.7,2.4,3.2,2.4
			s2.8-1,3.2-2.4l0-0.1c0.1-0.2,0.1-0.5,0.1-0.8c0-0.9-0.4-1.7-0.9-2.3l11.6-20.3c0.3,0.1,0.5,0.1,0.8,0.1c1.9,0,3.3-1.5,3.3-3.3
			c0-1.5-1-2.8-2.4-3.2v-18.7c1.4-0.4,2.4-1.7,2.4-3.2s-1-2.8-2.4-3.2v-48.1c1.4-0.4,2.4-1.7,2.4-3.2c0-1.5-1-2.8-2.4-3.2v-32.7
			C493,218.9,495.5,216.1,495.5,212.8z M482.5,212.8c0,0.3,0,0.5,0.1,0.8l-39.5,10.2c-0.9-3.3-3.1-6.1-6-7.6l12-25.5l9.9-21.1
			c0.5,0.1,1.1,0.3,1.6,0.3c2,0,3.7-1,4.8-2.4l20.2,9.9c0,0.2-0.1,0.4-0.1,0.6c0,1.5,1,2.8,2.4,3.2v25.4
			C484.9,206.9,482.5,209.6,482.5,212.8z M458.4,290.6l-26.6,42.4c-0.1,0-0.2,0-0.3-0.1v-63.7c0.5-0.1,1-0.4,1.4-0.8l23.1,13.2
			c-0.3,0.9-0.5,1.8-0.5,2.8C455.3,287,456.5,289.2,458.4,290.6z M459.9,291.6c1,0.5,2.1,0.7,3.3,0.7c0,0,0.1,0,0.2,0l4.9,32.3
			c-4.4,1.1-7.7,5-7.8,9.7l-26.1,1.3c-0.1-0.7-0.5-1.2-0.9-1.7L459.9,291.6z M456.7,280.1l-23-13.2c0.1-0.3,0.1-0.5,0.1-0.8
			c0-0.3,0-0.6-0.1-0.8l-0.2-0.5c-0.4-0.9-1.2-1.6-2.2-1.9v-23.4c1.5,0,2.9-0.3,4.2-0.8l22.8,39.7
			C457.8,278.9,457.2,279.4,456.7,280.1z M466.6,163l19.5-6.1c0.4,0.7,1.1,1.1,1.9,1.4v16.4c-0.6,0.2-1.1,0.5-1.6,1l-20.1-9.9
			c0.2-0.6,0.4-1.3,0.4-2C466.6,163.5,466.6,163.2,466.6,163z M478.4,111.4c1,0,2-0.5,2.6-1.3l7,6.2v35.4c-1.4,0.4-2.4,1.7-2.4,3.2
			c0,0,0,0.1,0,0.1l-19.5,6.1c-0.6-1.2-1.6-2.3-2.8-2.9l10.3-33.2l4.3-13.8C478,111.4,478.2,111.4,478.4,111.4z M473.9,102.4
			l2.4,3.1c-0.8,0.6-1.3,1.6-1.3,2.6c0,1,0.5,1.9,1.2,2.5l-4.5,14.4l-10.2,32.7c-0.3,0-0.6-0.1-0.9-0.1c-2.4,0-4.5,1.4-5.5,3.5
			l-22.2-7l-23.6-7.5c0-0.3,0.1-0.5,0.1-0.8c0-1.4-0.4-2.6-1-3.7l24.9-18.8l20-15.1c1.4,1.6,3.4,2.6,5.6,2.6c4.1,0,7.5-3.3,7.5-7.5
			c0-0.1,0-0.1,0-0.2L473.9,102.4z M372.5,227.1c-0.1-0.9-0.4-1.8-0.9-2.6l21.2-16l29-21.9c0.5,0.3,1,0.6,1.6,0.6l4.2,27.8
			c-5.2,1.5-9,6.3-9,12L372.5,227.1L372.5,227.1z M423.1,180.7l-13.3-23.9l-3-5.3c0.9-0.8,1.6-1.8,2.1-3l22.5,7.1l23.3,7.4
			c0,0.2-0.1,0.5-0.1,0.7c0,0.8,0.2,1.5,0.4,2.2l-1.1,0.6l-27.7,15.1c-0.6-0.6-1.5-1-2.4-1C423.6,180.6,423.4,180.7,423.1,180.7z
			 M445.3,104.6l6-0.3c0.1,0.9,0.4,1.7,0.8,2.4l-21.2,16.1l-23.7,17.9c-1.1-1.1-2.7-1.9-4.4-2.1l-0.9-12.2L445.3,104.6z M402,153.3
			c1.2,0,2.3-0.3,3.3-0.8l4.1,7.3l12.1,21.8c-0.6,0.6-1,1.4-1,2.4c0,0.4,0.1,0.8,0.2,1.2l-50.3,37.9c-0.4-0.4-0.9-0.7-1.4-1l31-69.1
			C400.7,153.2,401.4,153.3,402,153.3z M359.2,216.2L381,151l13.9-3c0.5,1.9,1.8,3.4,3.4,4.3l-31,69.1c-0.5-0.1-1-0.2-1.5-0.2
			c-1.1,0-2.1,0.3-3.1,0.8L359.2,216.2z M372.2,270.3c-0.3,0-0.6,0-0.8,0.1l-12.1-30.4l3.8-6.1c0.9,0.4,1.9,0.7,3,0.7
			c2,0,3.8-0.9,5-2.3l56.3,33c0,0.1,0,0.2-0.1,0.3l-52,6.6C374.7,271.1,373.5,270.3,372.2,270.3z M375.4,274.7
			c0.1-0.2,0.1-0.4,0.1-0.6l50.6-6.5l-27.5,16c-1-1.2-2.5-2-4.2-2c-1.6,0-3,0.7-4,1.8L375.4,274.7z M429.6,333.3
			c-0.6,0.3-1.2,0.8-1.5,1.4l-14.8-6.8l-23.9-29.7l3.5-6.2c0.5,0.2,1,0.3,1.6,0.3c3,0,5.4-2.4,5.4-5.4c0-0.6-0.1-1.2-0.3-1.8
			l28.7-16.6c0.4,0.4,0.9,0.6,1.4,0.8L429.6,333.3L429.6,333.3z M429.6,262.9c-0.5,0.1-1,0.4-1.4,0.8l-55.5-32.5l-0.7-0.4
			c0.3-0.6,0.4-1.2,0.5-1.8h46.3c0.8,5.5,5.2,9.9,10.8,10.5L429.6,262.9L429.6,262.9z M429.4,214.8l-4.2-27.7c1.2-0.5,2-1.7,2-3
			c0-0.3,0-0.5-0.1-0.7l24.8-13.5l4.1-2.2c0.4,0.5,0.8,0.9,1.3,1.2l-10.1,21.5l-11.8,25.2c-1.3-0.5-2.8-0.8-4.3-0.8
			C430.5,214.6,430,214.7,429.4,214.8z M445.1,359.6l-17.9-9.3l5.4-11.1c0.4-0.2,0.8-0.5,1-0.9l37,21.3L445.1,359.6L445.1,359.6z
			 M474.9,357.3c-0.3-0.1-0.6-0.1-0.9-0.1c-0.9,0-1.7,0.4-2.3,0.9L436,337.6l24.5-0.9c0.9,4.7,5.1,8.3,10.1,8.3c5.3,0,9.5-4,10.2-9
			l4.9-0.2c0.2,0.5,0.4,0.9,0.8,1.3L474.9,357.3z M488,331.5c-1.1,0.3-2,1.2-2.3,2.3h-4.8c-0.4-5.3-4.8-9.5-10.2-9.5
			c-0.2,0-0.4,0-0.6,0.1l-4.4-28.9l-0.5-3.5c1-0.3,2-0.7,2.8-1.4l18,17.4c-0.2,0.5-0.4,1-0.4,1.6c0,1.5,1,2.8,2.4,3.2L488,331.5
			L488,331.5z M488,306.4c-0.3,0.1-0.5,0.2-0.8,0.3l-18-17.3c1.1-1.3,1.8-3,1.8-4.9c0-2-0.8-3.8-2-5.1l1.3-1.5l17.1-19.7
			c0.2,0.1,0.3,0.1,0.5,0.2L488,306.4L488,306.4z M485.5,255.1c0,0.7,0.2,1.3,0.5,1.8l-18.4,21.2c-1.3-0.9-2.8-1.4-4.5-1.4
			c-1.2,0-2.2,0.3-3.2,0.7l-22.7-39.5c3.8-2.1,6.3-6.2,6.3-10.8c0-0.5,0-1-0.1-1.5l39.5-10.2c0.9,2,2.7,3.5,5,3.8v32.7
			C486.6,252.3,485.5,253.6,485.5,255.1z"/>
	</g>
</g>
</svg>
