<?xml version="1.0" encoding="UTF-8" standalone="no"?>
<!-- Generator: Adobe Illustrator 25.2.1, SVG Export Plug-In . SVG Version: 6.00 Build 0)  -->

<svg
   version="1.1"
   id="Layer_1"
   x="0px"
   y="0px"
   viewBox="0 0 524.80004 179.8"
   xml:space="preserve"
   sodipodi:docname="railwai.svg"
   width="524.80005"
   height="179.8"
   inkscape:version="1.1.1 (3bf5ae0d25, 2021-09-20)"
   xmlns:inkscape="http://www.inkscape.org/namespaces/inkscape"
   xmlns:sodipodi="http://sodipodi.sourceforge.net/DTD/sodipodi-0.dtd"
   xmlns="http://www.w3.org/2000/svg"
   xmlns:svg="http://www.w3.org/2000/svg"><defs
   id="defs219">
	
	
	
	
</defs><sodipodi:namedview
   id="namedview217"
   pagecolor="#ffffff"
   bordercolor="#666666"
   borderopacity="1.0"
   inkscape:pageshadow="2"
   inkscape:pageopacity="0.0"
   inkscape:pagecheckerboard="0"
   showgrid="false"
   fit-margin-top="0"
   fit-margin-left="0"
   fit-margin-right="0"
   fit-margin-bottom="0"
   inkscape:zoom="1.0776316"
   inkscape:cx="-38.510379"
   inkscape:cy="-43.150183"
   inkscape:window-width="1920"
   inkscape:window-height="1027"
   inkscape:window-x="-8"
   inkscape:window-y="-8"
   inkscape:window-maximized="1"
   inkscape:current-layer="layer3" />
<style
   type="text/css"
   id="style115">
	.st0{fill:#3C3C3B;}
	.st1{fill:#585857;}
	.st2{fill:url(#SVGID_1_);}
	.st3{fill:#E85B0D;}
	.st4{fill:none;stroke:#585857;stroke-width:1.5764;stroke-miterlimit:10;}
	.st5{fill:url(#SVGID_2_);}
	.st6{fill:url(#SVGID_3_);}
</style>

<g
   inkscape:groupmode="layer"
   id="layer3"
   inkscape:label="modjo"
   style="display:inline"
   transform="translate(-232.60001,-423.1)"><g
     id="g163">
		<path
   class="st0"
   d="m 483.9,593.4 h -0.4 v 9.1 h -1.7 v -9.1 h -0.3 l -4.6,-11 h 1.6 l 3.9,9.3 h 0.5 l 3.9,-9.3 h 1.6 z"
   id="path117" />
		<path
   class="st0"
   d="m 498,598.6 c 0,0.9 -0.2,1.6 -0.5,2.1 -0.3,0.5 -0.7,1 -1.2,1.2 -0.5,0.2 -0.9,0.5 -1.4,0.6 -0.5,0.1 -0.9,0.1 -1.3,0.1 -0.4,0 -0.8,0 -1.3,-0.1 -0.5,-0.1 -1,-0.3 -1.4,-0.6 -0.4,-0.3 -0.9,-0.7 -1.2,-1.2 -0.3,-0.5 -0.5,-1.2 -0.5,-2.1 V 592 c 0,-0.9 0.2,-1.6 0.5,-2.1 0.3,-0.5 0.7,-1 1.2,-1.2 0.5,-0.2 0.9,-0.5 1.4,-0.6 0.5,-0.1 0.9,-0.1 1.3,-0.1 0.4,0 0.8,0 1.3,0.1 0.5,0.1 1,0.3 1.4,0.6 0.4,0.3 0.9,0.7 1.2,1.2 0.3,0.5 0.5,1.2 0.5,2.1 z m -1.3,-0.2 v -6.2 c 0,-0.6 -0.1,-1.1 -0.3,-1.5 -0.2,-0.4 -0.5,-0.7 -0.8,-0.9 -0.3,-0.2 -0.6,-0.3 -1,-0.4 -0.4,-0.1 -0.7,-0.1 -0.9,-0.1 -0.2,0 -0.5,0 -0.9,0.1 -0.4,0.1 -0.7,0.2 -1,0.4 -0.3,0.2 -0.6,0.5 -0.8,0.9 -0.2,0.4 -0.3,0.9 -0.3,1.5 v 6.2 c 0,0.6 0.1,1.1 0.3,1.5 0.2,0.4 0.5,0.7 0.8,0.9 0.3,0.2 0.7,0.3 1,0.4 0.4,0.1 0.7,0.1 0.9,0.1 0.2,0 0.5,0 0.9,-0.1 0.4,-0.1 0.7,-0.2 1,-0.4 0.3,-0.2 0.6,-0.5 0.8,-0.9 0.2,-0.4 0.3,-0.9 0.3,-1.5 z"
   id="path119" />
		<path
   class="st0"
   d="m 501.8,600.4 c -0.2,-0.5 -0.4,-1 -0.4,-1.5 0,-0.5 -0.1,-1 -0.1,-1.5 v -9.3 h 1.5 v 10.2 c 0,0.5 0.1,0.9 0.2,1.3 0.1,0.4 0.3,0.7 0.6,0.9 0.2,0.2 0.5,0.4 0.8,0.6 0.3,0.1 0.6,0.2 1,0.2 0.6,0 1.2,-0.1 1.9,-0.3 0.6,-0.2 1.1,-0.5 1.5,-0.7 v -12.2 h 1.5 V 601 l 0.6,0.6 -1,1 -0.9,-0.9 c -0.6,0.3 -1.1,0.5 -1.8,0.7 -0.6,0.1 -1.2,0.2 -1.7,0.2 -0.7,0 -1.4,-0.2 -2,-0.5 -0.6,-0.3 -1.3,-0.8 -1.7,-1.7 z"
   id="path121" />
		<path
   class="st0"
   d="m 521.3,589 -0.8,1.2 c -0.3,-0.2 -0.6,-0.3 -0.8,-0.5 -0.2,-0.2 -0.4,-0.2 -0.6,-0.2 -0.2,-0.1 -0.3,-0.1 -0.5,-0.1 -0.2,0 -0.3,0 -0.5,0 -0.3,0 -0.7,0.1 -1.2,0.2 -0.5,0.1 -1,0.5 -1.5,0.9 v 11.9 H 514 v -12.7 l -0.8,-0.8 1,-1 1,1 c 0.6,-0.5 1.1,-0.8 1.6,-0.9 0.5,-0.1 0.9,-0.2 1.3,-0.2 0.4,0 0.8,0.1 1.3,0.2 0.4,0.3 1.1,0.6 1.9,1 z"
   id="path123" />
		<path
   class="st0"
   d="m 536.3,588.7 v -6.3 h 1.4 v 18.7 l 0.6,0.6 -1,1 -0.9,-0.9 c -0.6,0.3 -1.2,0.6 -1.9,0.7 -0.7,0.1 -1.2,0.2 -1.6,0.2 -0.5,0 -1,-0.1 -1.5,-0.3 -0.5,-0.2 -0.9,-0.5 -1.2,-0.9 -0.3,-0.4 -0.6,-0.8 -0.8,-1.3 -0.2,-0.5 -0.3,-1 -0.3,-1.6 V 592 c 0,-0.6 0.1,-1.1 0.3,-1.6 0.2,-0.5 0.5,-0.9 0.8,-1.3 0.3,-0.4 0.8,-0.7 1.2,-0.9 0.4,-0.2 1,-0.3 1.5,-0.3 0.3,0 0.8,0 1.3,0.1 0.7,0.1 1.3,0.3 2.1,0.7 z m 0,11.6 v -9.9 c -0.7,-0.4 -1.3,-0.7 -1.9,-0.8 -0.6,-0.1 -1,-0.2 -1.4,-0.2 -0.7,0 -1.2,0.2 -1.7,0.7 -0.5,0.5 -0.7,1.1 -0.7,1.8 v 7 c 0,0.3 0.1,0.7 0.2,1 0.1,0.3 0.3,0.6 0.5,0.8 0.2,0.2 0.5,0.4 0.8,0.5 0.3,0.1 0.6,0.2 0.9,0.2 0.2,0 0.4,0 0.8,-0.1 0.4,-0.1 0.7,-0.1 1,-0.2 0.3,-0.1 0.7,-0.2 1,-0.3 0.2,-0.2 0.4,-0.3 0.5,-0.5 z"
   id="path125" />
		<path
   class="st0"
   d="m 549.5,601.1 0.5,0.5 -1,1 -0.8,-0.8 c -0.6,0.3 -1.2,0.6 -1.9,0.7 -0.7,0.1 -1.2,0.2 -1.6,0.2 -0.5,0 -1,-0.1 -1.5,-0.3 -0.5,-0.2 -0.9,-0.5 -1.2,-0.9 -0.3,-0.4 -0.6,-0.8 -0.8,-1.3 -0.2,-0.5 -0.3,-1 -0.3,-1.6 V 597 c 0,-0.6 0.1,-1.1 0.3,-1.6 0.2,-0.5 0.5,-0.9 0.8,-1.3 0.3,-0.4 0.8,-0.7 1.2,-0.9 0.5,-0.2 1,-0.3 1.5,-0.3 0.1,0 0.3,0 0.6,0 0.3,0 0.6,0.1 0.9,0.1 0.3,0 0.6,0.1 1,0.2 0.3,0.1 0.6,0.2 0.8,0.4 v -1 c 0,-0.4 -0.1,-0.9 -0.2,-1.3 -0.1,-0.4 -0.4,-0.8 -0.7,-1.2 -0.3,-0.3 -0.6,-0.6 -1,-0.8 -0.4,-0.2 -0.8,-0.3 -1.2,-0.3 -0.2,0 -0.4,0 -0.8,0.1 -0.4,0.1 -0.8,0.2 -1.2,0.3 -0.5,0.1 -1,0.2 -1.6,0.4 l -0.4,-1.3 c 0.6,-0.2 1.2,-0.3 1.8,-0.4 0.5,-0.1 0.9,-0.2 1.3,-0.3 0.4,-0.1 0.8,-0.1 1,-0.1 0.6,0 1.2,0.1 1.7,0.4 0.5,0.3 1,0.7 1.4,1.1 0.4,0.4 0.7,1 1,1.6 0.2,0.6 0.3,1.2 0.3,1.8 z m -1.4,-5.5 c 0,0 -0.1,-0.1 -0.3,-0.2 -0.2,-0.1 -0.4,-0.2 -0.7,-0.3 -0.3,-0.1 -0.7,-0.2 -1,-0.3 -0.3,-0.1 -0.8,-0.2 -1.3,-0.2 -0.3,0 -0.6,0.1 -0.9,0.2 -0.3,0.1 -0.5,0.3 -0.8,0.5 -0.3,0.2 -0.4,0.5 -0.5,0.8 -0.1,0.3 -0.2,0.6 -0.2,1 v 1.8 c 0,0.3 0.1,0.7 0.2,1 0.1,0.3 0.3,0.6 0.5,0.8 0.2,0.2 0.5,0.4 0.8,0.5 0.3,0.1 0.6,0.2 0.9,0.2 0.3,0 0.6,0 1,-0.2 0.4,-0.2 0.7,-0.2 1.1,-0.4 0.4,-0.2 0.8,-0.3 1.2,-0.5 z"
   id="path127" />
		<path
   class="st0"
   d="m 554,598.8 v -9.2 h -2.4 v -1.4 h 2.4 v -5.7 h 1.5 v 5.7 h 2.7 v 1.4 h -2.7 v 9.4 c 0,0.8 0.2,1.3 0.6,1.6 0.4,0.3 0.9,0.5 1.4,0.5 h 0.6 v 1.5 h -0.8 c -0.5,0 -0.9,-0.1 -1.3,-0.2 -0.4,-0.1 -0.8,-0.4 -1.1,-0.7 -0.3,-0.3 -0.5,-0.7 -0.7,-1.2 -0.1,-0.4 -0.2,-1 -0.2,-1.7 z"
   id="path129" />
		<path
   class="st0"
   d="m 568.6,601.1 0.5,0.5 -1,1 -0.8,-0.8 c -0.6,0.3 -1.2,0.6 -1.9,0.7 -0.7,0.1 -1.2,0.2 -1.6,0.2 -0.5,0 -1,-0.1 -1.5,-0.3 -0.5,-0.2 -0.9,-0.5 -1.2,-0.9 -0.3,-0.4 -0.6,-0.8 -0.8,-1.3 -0.2,-0.5 -0.3,-1 -0.3,-1.6 V 597 c 0,-0.6 0.1,-1.1 0.3,-1.6 0.2,-0.5 0.5,-0.9 0.8,-1.3 0.3,-0.4 0.8,-0.7 1.2,-0.9 0.5,-0.2 1,-0.3 1.5,-0.3 0.1,0 0.3,0 0.6,0 0.3,0 0.6,0.1 0.9,0.1 0.3,0 0.6,0.1 1,0.2 0.3,0.1 0.6,0.2 0.8,0.4 v -1 c 0,-0.4 -0.1,-0.9 -0.2,-1.3 -0.1,-0.4 -0.4,-0.8 -0.7,-1.2 -0.3,-0.3 -0.6,-0.6 -1,-0.8 -0.4,-0.2 -0.8,-0.3 -1.2,-0.3 -0.2,0 -0.4,0 -0.8,0.1 -0.4,0.1 -0.8,0.2 -1.2,0.3 -0.5,0.1 -1,0.2 -1.6,0.4 l -0.4,-1.3 c 0.6,-0.2 1.2,-0.3 1.8,-0.4 0.5,-0.1 0.9,-0.2 1.3,-0.3 0.4,-0.1 0.8,-0.1 1,-0.1 0.6,0 1.2,0.1 1.7,0.4 0.5,0.3 1,0.7 1.4,1.1 0.4,0.4 0.7,1 1,1.6 0.2,0.6 0.3,1.2 0.3,1.8 z m -1.4,-5.5 c 0,0 -0.1,-0.1 -0.3,-0.2 -0.2,-0.1 -0.4,-0.2 -0.7,-0.3 -0.3,-0.1 -0.7,-0.2 -1,-0.3 -0.3,-0.1 -0.8,-0.2 -1.3,-0.2 -0.3,0 -0.6,0.1 -0.9,0.2 -0.3,0.1 -0.5,0.3 -0.8,0.5 -0.3,0.2 -0.4,0.5 -0.5,0.8 -0.1,0.3 -0.2,0.6 -0.2,1 v 1.8 c 0,0.3 0.1,0.7 0.2,1 0.1,0.3 0.3,0.6 0.5,0.8 0.2,0.2 0.5,0.4 0.8,0.5 0.3,0.1 0.6,0.2 0.9,0.2 0.3,0 0.6,0 1,-0.2 0.4,-0.2 0.7,-0.2 1.1,-0.4 0.4,-0.2 0.8,-0.3 1.2,-0.5 z"
   id="path131" />
		<path
   class="st0"
   d="m 586.8,598.6 c 0,0.9 -0.2,1.6 -0.5,2.1 -0.3,0.5 -0.7,1 -1.2,1.2 -0.5,0.2 -0.9,0.5 -1.4,0.6 -0.5,0.1 -0.9,0.1 -1.3,0.1 -0.4,0 -0.8,0 -1.3,-0.1 -0.5,-0.1 -1,-0.3 -1.4,-0.6 -0.4,-0.3 -0.8,-0.7 -1.2,-1.2 -0.4,-0.5 -0.5,-1.2 -0.5,-2.1 V 592 c 0,-0.9 0.2,-1.6 0.5,-2.1 0.3,-0.5 0.7,-1 1.2,-1.2 0.5,-0.2 0.9,-0.5 1.4,-0.6 0.5,-0.1 0.9,-0.1 1.3,-0.1 0.4,0 0.8,0 1.3,0.1 0.5,0.1 1,0.3 1.4,0.6 0.4,0.3 0.8,0.7 1.2,1.2 0.4,0.5 0.5,1.2 0.5,2.1 z m -1.4,-0.2 v -6.2 c 0,-0.6 -0.1,-1.1 -0.3,-1.5 -0.2,-0.4 -0.5,-0.7 -0.8,-0.9 -0.3,-0.2 -0.7,-0.3 -1,-0.4 -0.3,-0.1 -0.7,-0.1 -0.9,-0.1 -0.2,0 -0.5,0 -0.9,0.1 -0.4,0.1 -0.7,0.2 -1,0.4 -0.3,0.2 -0.6,0.5 -0.8,0.9 -0.2,0.4 -0.3,0.9 -0.3,1.5 v 6.2 c 0,0.6 0.1,1.1 0.3,1.5 0.2,0.4 0.5,0.7 0.8,0.9 0.3,0.2 0.7,0.3 1,0.4 0.3,0.1 0.7,0.1 0.9,0.1 0.2,0 0.5,0 0.9,-0.1 0.3,-0.1 0.7,-0.2 1,-0.4 0.3,-0.2 0.6,-0.5 0.8,-0.9 0.2,-0.4 0.3,-0.9 0.3,-1.5 z"
   id="path133" />
		<path
   class="st0"
   d="m 598.6,590.3 c 0.2,0.5 0.4,1 0.4,1.5 0,0.5 0.1,1 0.1,1.5 v 9.3 h -1.5 v -10.2 c 0,-1 -0.3,-1.7 -0.8,-2.2 -0.5,-0.5 -1.1,-0.8 -1.8,-0.8 -0.4,0 -0.8,0.1 -1.4,0.2 -0.6,0.1 -1.2,0.4 -1.9,0.9 v 12.2 h -1.5 v -13 l -0.6,-0.6 1,-1 0.9,0.9 c 1,-0.6 2,-0.9 3,-0.9 0.9,0 1.7,0.2 2.4,0.5 0.8,0.2 1.3,0.8 1.7,1.7 z"
   id="path135" />
		<path
   class="st0"
   d="m 609.8,598.8 v -9.2 h -2.4 v -1.4 h 2.4 v -5.7 h 1.5 v 5.7 h 2.7 v 1.4 h -2.7 v 9.4 c 0,0.8 0.2,1.3 0.6,1.6 0.4,0.3 0.9,0.5 1.4,0.5 h 0.6 v 1.5 h -0.8 c -0.5,0 -0.9,-0.1 -1.3,-0.2 -0.4,-0.1 -0.8,-0.4 -1.1,-0.7 -0.3,-0.3 -0.5,-0.7 -0.7,-1.2 -0.1,-0.4 -0.2,-1 -0.2,-1.7 z"
   id="path137" />
		<path
   class="st0"
   d="m 623.5,602.5 v -10.7 c 0,-0.7 -0.2,-1.3 -0.7,-1.8 -0.5,-0.5 -1,-0.7 -1.7,-0.7 -0.2,0 -0.4,0 -0.6,0 -0.2,0 -0.5,0.1 -0.8,0.2 -0.3,0.1 -0.6,0.2 -0.9,0.3 -0.3,0.1 -0.6,0.3 -0.9,0.5 v 12.2 h -1.5 v -20.1 h 1.4 v 6.3 c 0.8,-0.4 1.4,-0.6 2,-0.7 0.6,-0.1 1,-0.1 1.3,-0.1 0.5,0 1,0.1 1.5,0.3 0.5,0.2 0.9,0.5 1.2,0.9 0.3,0.4 0.6,0.8 0.8,1.3 0.2,0.5 0.3,1 0.3,1.6 v 10.6 z"
   id="path139" />
		<path
   class="st0"
   d="m 628.3,592 c 0,-0.6 0.1,-1.1 0.3,-1.6 0.2,-0.5 0.5,-0.9 0.8,-1.3 0.3,-0.4 0.8,-0.7 1.2,-0.9 0.4,-0.2 1,-0.3 1.5,-0.3 h 1 c 0.5,0 1,0.1 1.5,0.3 0.5,0.2 0.9,0.5 1.3,0.9 0.4,0.4 0.7,0.8 0.8,1.3 0.2,0.5 0.3,1 0.3,1.6 v 1 c 0,0.8 -0.1,1.5 -0.4,2 -0.3,0.5 -0.7,1 -1.2,1.3 -0.5,0.3 -1.1,0.6 -1.7,0.7 -0.7,0.1 -1.4,0.2 -2.1,0.2 -0.3,0 -0.6,0 -0.9,0 -0.3,0 -0.6,0 -1,-0.1 v 1.7 c 0.1,0.8 0.5,1.4 1.1,1.8 0.6,0.4 1.2,0.7 2,0.7 0.1,0 0.3,0 0.7,-0.1 0.4,-0.1 0.8,-0.2 1.3,-0.3 0.5,-0.1 1.1,-0.2 1.8,-0.4 l 0.3,1.5 c -0.7,0.2 -1.3,0.3 -1.9,0.4 -0.5,0.1 -1,0.2 -1.4,0.3 -0.4,0.1 -0.7,0.1 -0.8,0.1 -0.6,0 -1.2,-0.1 -1.8,-0.3 -0.6,-0.2 -1,-0.5 -1.5,-0.9 -0.4,-0.4 -0.8,-0.9 -1,-1.4 -0.2,-0.5 -0.4,-1.1 -0.4,-1.8 z m 4.9,3.6 v 0 c 0.4,0 0.7,-0.1 1,-0.2 0.3,-0.1 0.5,-0.3 0.8,-0.6 0.2,-0.2 0.4,-0.5 0.5,-0.8 0.1,-0.3 0.2,-0.6 0.2,-1 v -1.2 c 0,-0.5 -0.1,-0.8 -0.3,-1.2 -0.2,-0.3 -0.4,-0.6 -0.7,-0.8 -0.3,-0.2 -0.6,-0.3 -1,-0.4 -0.4,-0.1 -0.8,-0.1 -1.2,-0.1 -0.4,0 -0.7,0.1 -1,0.2 -0.3,0.1 -0.6,0.3 -0.9,0.5 -0.3,0.2 -0.5,0.5 -0.6,0.8 -0.2,0.3 -0.2,0.7 -0.2,1 v 3.8 z"
   id="path141" />
		<path
   class="st0"
   d="m 654.1,598.6 c 0,1.4 -0.3,2.5 -1.1,3.2 -0.8,0.7 -1.6,1.1 -2.7,1.1 -0.3,0 -0.7,0 -1.1,-0.1 -0.4,-0.1 -0.7,-0.2 -1.1,-0.3 l -2.4,-1 0.6,-1.3 2.4,1 c 0.3,0.1 0.6,0.2 0.8,0.2 0.3,0 0.5,0.1 0.8,0.1 0.7,0 1.2,-0.3 1.7,-0.8 0.5,-0.5 0.7,-1.3 0.7,-2.2 0,-0.4 -0.1,-0.8 -0.2,-1 -0.1,-0.2 -0.4,-0.5 -0.6,-0.7 -0.2,-0.2 -0.5,-0.3 -0.8,-0.4 -0.3,-0.1 -0.6,-0.1 -0.8,-0.1 -0.7,0 -1.3,-0.1 -1.9,-0.2 -0.6,-0.1 -1,-0.3 -1.4,-0.7 -0.4,-0.4 -0.7,-0.7 -0.9,-1.2 -0.2,-0.5 -0.3,-1.2 -0.3,-2 0,-1.4 0.4,-2.5 1.1,-3.2 0.7,-0.7 1.7,-1.1 2.8,-1.1 0.3,0 0.7,0 1,0.1 0.3,0.1 0.7,0.2 1.1,0.3 l 1,0.3 -0.5,1.2 c -0.5,-0.2 -0.8,-0.3 -1.1,-0.4 -0.3,-0.1 -0.5,-0.2 -0.7,-0.2 -0.2,0 -0.3,-0.1 -0.4,-0.1 -0.1,0 -0.2,0 -0.3,0 h -0.1 c -0.7,0 -1.3,0.3 -1.8,0.8 -0.5,0.5 -0.8,1.3 -0.8,2.2 0,0.4 0.1,0.8 0.3,1.1 0.2,0.3 0.4,0.6 0.7,0.8 0.3,0.2 0.5,0.4 0.8,0.5 0.3,0.1 0.6,0.2 0.8,0.2 0.6,0 1.2,0 1.7,0.2 0.5,0.1 1,0.3 1.4,0.6 0.4,0.3 0.7,0.7 0.9,1.2 0.3,0.5 0.4,1.1 0.4,1.9 z"
   id="path143" />
		<path
   class="st0"
   d="m 664,591.7 c 0,-0.3 -0.1,-0.7 -0.2,-1 -0.2,-0.3 -0.4,-0.5 -0.7,-0.8 -0.3,-0.2 -0.6,-0.4 -0.9,-0.5 -0.3,-0.1 -0.7,-0.2 -1,-0.2 -0.2,0 -0.4,0 -0.7,0.1 -0.3,0.1 -0.6,0.1 -0.8,0.2 -0.2,0.1 -0.6,0.2 -0.8,0.3 -0.2,0.1 -0.5,0.2 -0.7,0.4 v 12.2 h -1.5 v -13 l -0.6,-0.6 1,-1 0.9,0.9 c 0.5,-0.3 1,-0.5 1.5,-0.7 0.5,-0.2 1,-0.3 1.5,-0.3 0.9,0 1.7,0.2 2.4,0.5 0.7,0.4 1.2,0.9 1.5,1.7 0.3,-0.5 0.6,-0.8 0.9,-1.1 0.3,-0.3 0.7,-0.5 1.1,-0.7 0.4,-0.2 0.8,-0.3 1.1,-0.3 0.4,-0.1 0.7,-0.1 1.1,-0.1 0.7,0 1.3,0.1 1.8,0.4 0.5,0.3 0.9,0.6 1.2,1 0.3,0.4 0.5,0.8 0.7,1.3 0.1,0.5 0.2,0.9 0.2,1.4 v 10.6 h -1.5 V 592 c 0,-0.4 0,-0.7 -0.1,-1 -0.1,-0.3 -0.2,-0.6 -0.4,-0.9 -0.2,-0.2 -0.4,-0.5 -0.8,-0.6 -0.3,-0.2 -0.7,-0.2 -1.2,-0.2 -1.2,0 -2.1,0.3 -2.6,1 -0.5,0.7 -0.8,1.6 -0.8,2.9 v 9.3 H 664 Z"
   id="path145" />
		<path
   class="st0"
   d="m 684.5,601.1 0.5,0.5 -1,1 -0.8,-0.8 c -0.6,0.3 -1.2,0.6 -1.9,0.7 -0.7,0.1 -1.2,0.2 -1.6,0.2 -0.5,0 -1,-0.1 -1.5,-0.3 -0.5,-0.2 -0.9,-0.5 -1.2,-0.9 -0.3,-0.4 -0.6,-0.8 -0.8,-1.3 -0.2,-0.5 -0.3,-1 -0.3,-1.6 V 597 c 0,-0.6 0.1,-1.1 0.3,-1.6 0.2,-0.5 0.5,-0.9 0.8,-1.3 0.3,-0.4 0.8,-0.7 1.2,-0.9 0.5,-0.2 1,-0.3 1.5,-0.3 0.1,0 0.3,0 0.6,0 0.3,0 0.6,0.1 0.9,0.1 0.3,0 0.6,0.1 1,0.2 0.3,0.1 0.6,0.2 0.8,0.4 v -1 c 0,-0.4 -0.1,-0.9 -0.2,-1.3 -0.1,-0.4 -0.4,-0.8 -0.7,-1.2 -0.3,-0.3 -0.6,-0.6 -1,-0.8 -0.4,-0.2 -0.8,-0.3 -1.2,-0.3 -0.2,0 -0.4,0 -0.8,0.1 -0.4,0.1 -0.8,0.2 -1.2,0.3 -0.5,0.1 -1,0.2 -1.6,0.4 l -0.4,-1.3 c 0.6,-0.2 1.2,-0.3 1.8,-0.4 0.5,-0.1 0.9,-0.2 1.3,-0.3 0.4,-0.1 0.8,-0.1 1,-0.1 0.6,0 1.2,0.1 1.7,0.4 0.5,0.3 1,0.7 1.4,1.1 0.4,0.4 0.7,1 1,1.6 0.2,0.6 0.3,1.2 0.3,1.8 z m -1.4,-5.5 c 0,0 -0.1,-0.1 -0.3,-0.2 -0.2,-0.1 -0.4,-0.2 -0.7,-0.3 -0.3,-0.1 -0.7,-0.2 -1,-0.3 -0.3,-0.1 -0.8,-0.2 -1.3,-0.2 -0.3,0 -0.6,0.1 -0.9,0.2 -0.3,0.1 -0.5,0.3 -0.8,0.5 -0.3,0.2 -0.4,0.5 -0.5,0.8 -0.1,0.3 -0.2,0.6 -0.2,1 v 1.8 c 0,0.3 0.1,0.7 0.2,1 0.1,0.3 0.3,0.6 0.5,0.8 0.2,0.2 0.5,0.4 0.8,0.5 0.3,0.1 0.6,0.2 0.9,0.2 0.3,0 0.6,0 1,-0.2 0.4,-0.2 0.7,-0.2 1.1,-0.4 0.4,-0.2 0.8,-0.3 1.2,-0.5 z"
   id="path147" />
		<path
   class="st0"
   d="m 695.5,589 -0.8,1.2 c -0.3,-0.2 -0.6,-0.3 -0.8,-0.5 -0.2,-0.2 -0.4,-0.2 -0.6,-0.2 -0.2,-0.1 -0.3,-0.1 -0.5,-0.1 -0.2,0 -0.3,0 -0.5,0 -0.3,0 -0.7,0.1 -1.2,0.2 -0.5,0.1 -1,0.5 -1.5,0.9 v 11.9 h -1.4 v -12.7 l -0.8,-0.8 1,-1 1,1 c 0.6,-0.5 1.1,-0.8 1.6,-0.9 0.5,-0.1 0.9,-0.2 1.3,-0.2 0.4,0 0.8,0.1 1.3,0.2 0.4,0.3 1.1,0.6 1.9,1 z"
   id="path149" />
		<path
   class="st0"
   d="m 698.7,598.8 v -9.2 h -2.4 v -1.4 h 2.4 v -5.7 h 1.5 v 5.7 h 2.7 v 1.4 h -2.7 v 9.4 c 0,0.8 0.2,1.3 0.6,1.6 0.4,0.3 0.9,0.5 1.4,0.5 h 0.6 v 1.5 H 702 c -0.5,0 -0.9,-0.1 -1.3,-0.2 -0.4,-0.1 -0.8,-0.4 -1.1,-0.7 -0.3,-0.3 -0.5,-0.7 -0.7,-1.2 -0.1,-0.4 -0.2,-1 -0.2,-1.7 z"
   id="path151" />
		<path
   class="st0"
   d="m 712.4,598.8 v -9.2 H 710 v -1.4 h 2.4 v -5.7 h 1.5 v 5.7 h 2.7 v 1.4 h -2.7 v 9.4 c 0,0.8 0.2,1.3 0.6,1.6 0.4,0.3 0.9,0.5 1.4,0.5 h 0.6 v 1.5 h -0.8 c -0.5,0 -0.9,-0.1 -1.3,-0.2 -0.4,-0.1 -0.8,-0.4 -1.1,-0.7 -0.3,-0.3 -0.5,-0.7 -0.7,-1.2 -0.1,-0.4 -0.2,-1 -0.2,-1.7 z"
   id="path153" />
		<path
   class="st0"
   d="m 726.4,589 -0.8,1.2 c -0.3,-0.2 -0.6,-0.3 -0.8,-0.5 -0.2,-0.2 -0.4,-0.2 -0.6,-0.2 -0.2,-0.1 -0.3,-0.1 -0.5,-0.1 -0.2,0 -0.3,0 -0.5,0 -0.3,0 -0.7,0.1 -1.2,0.2 -0.5,0.1 -1,0.5 -1.5,0.9 v 11.9 H 719 v -12.7 l -0.8,-0.8 1,-1 1,1 c 0.6,-0.5 1.1,-0.8 1.6,-0.9 0.5,-0.1 0.9,-0.2 1.3,-0.2 0.4,0 0.8,0.1 1.3,0.2 0.5,0.3 1.1,0.6 2,1 z"
   id="path155" />
		<path
   class="st0"
   d="m 736.5,601.1 0.5,0.5 -1,1 -0.8,-0.8 c -0.6,0.3 -1.2,0.6 -1.9,0.7 -0.7,0.1 -1.2,0.2 -1.6,0.2 -0.5,0 -1,-0.1 -1.5,-0.3 -0.5,-0.2 -0.9,-0.5 -1.2,-0.9 -0.3,-0.4 -0.6,-0.8 -0.8,-1.3 -0.2,-0.5 -0.3,-1 -0.3,-1.6 V 597 c 0,-0.6 0.1,-1.1 0.3,-1.6 0.2,-0.5 0.5,-0.9 0.8,-1.3 0.3,-0.4 0.8,-0.7 1.2,-0.9 0.5,-0.2 1,-0.3 1.5,-0.3 0.1,0 0.3,0 0.6,0 0.3,0 0.6,0.1 0.9,0.1 0.3,0 0.6,0.1 1,0.2 0.3,0.1 0.6,0.2 0.8,0.4 v -1 c 0,-0.4 -0.1,-0.9 -0.2,-1.3 -0.1,-0.4 -0.4,-0.8 -0.7,-1.2 -0.3,-0.3 -0.6,-0.6 -1,-0.8 -0.4,-0.2 -0.8,-0.3 -1.2,-0.3 -0.2,0 -0.4,0 -0.8,0.1 -0.4,0.1 -0.8,0.2 -1.2,0.3 -0.5,0.1 -1,0.2 -1.6,0.4 l -0.4,-1.3 c 0.6,-0.2 1.2,-0.3 1.8,-0.4 0.5,-0.1 0.9,-0.2 1.3,-0.3 0.4,-0.1 0.8,-0.1 1,-0.1 0.6,0 1.2,0.1 1.7,0.4 0.5,0.3 1,0.7 1.4,1.1 0.4,0.4 0.7,1 1,1.6 0.2,0.6 0.3,1.2 0.3,1.8 z m -1.5,-5.5 c 0,0 -0.1,-0.1 -0.3,-0.2 -0.2,-0.1 -0.4,-0.2 -0.7,-0.3 -0.3,-0.1 -0.7,-0.2 -1,-0.3 -0.3,-0.1 -0.8,-0.2 -1.3,-0.2 -0.3,0 -0.6,0.1 -0.9,0.2 -0.3,0.1 -0.5,0.3 -0.8,0.5 -0.3,0.2 -0.4,0.5 -0.5,0.8 -0.1,0.3 -0.2,0.6 -0.2,1 v 1.8 c 0,0.3 0.1,0.7 0.2,1 0.1,0.3 0.3,0.6 0.5,0.8 0.2,0.2 0.5,0.4 0.8,0.5 0.3,0.1 0.6,0.2 0.9,0.2 0.3,0 0.6,0 1,-0.2 0.4,-0.2 0.7,-0.2 1.1,-0.4 0.4,-0.2 0.8,-0.3 1.2,-0.5 z"
   id="path157" />
		<path
   class="st0"
   d="m 741.2,598.3 c 0,0.5 0.1,0.9 0.2,1.2 0.2,0.4 0.4,0.7 0.7,1 0.3,0.3 0.6,0.5 1,0.6 0.4,0.1 0.8,0.2 1.2,0.2 0.2,0 0.4,0 0.7,-0.1 0.3,-0.1 0.6,-0.1 0.8,-0.2 0.3,-0.1 0.7,-0.2 1,-0.3 l 0.5,1.3 c -0.4,0.1 -0.8,0.2 -1.1,0.3 -0.3,0.1 -0.6,0.1 -1,0.2 -0.4,0.1 -0.7,0.1 -0.9,0.1 -0.6,0 -1.2,-0.1 -1.8,-0.3 -0.5,-0.2 -1,-0.5 -1.4,-0.9 -0.4,-0.4 -0.7,-0.9 -1,-1.4 -0.2,-0.5 -0.4,-1.2 -0.4,-1.8 v -6 c 0,-0.7 0.1,-1.2 0.4,-1.8 0.3,-0.6 0.6,-1 1,-1.4 0.4,-0.4 0.9,-0.7 1.4,-0.9 0.5,-0.2 1.1,-0.3 1.8,-0.3 0.3,0 0.6,0 1,0.1 0.3,0.1 0.7,0.2 0.9,0.3 0.3,0.1 0.7,0.2 1,0.3 l -0.3,1.2 c -0.3,-0.1 -0.6,-0.2 -0.9,-0.3 -0.3,-0.1 -0.5,-0.1 -0.8,-0.2 -0.3,-0.1 -0.6,-0.1 -0.8,-0.1 -0.8,0 -1.6,0.3 -2.2,0.8 -0.6,0.5 -0.9,1.3 -0.9,2.2 v 6.2 z"
   id="path159" />
		<path
   class="st0"
   d="m 755.4,602.5 -3.1,-6.9 h -1 v 6.9 h -1.5 v -20.1 h 1.5 v 11.5 h 0.9 l 3.1,-5.7 h 1.6 l -3.5,6.6 3.6,7.7 z"
   id="path161" />
	</g><line
     class="st4"
     x1="757.40002"
     y1="572.90002"
     x2="232.60001"
     y2="572.90002"
     id="line192" /></g><g
   inkscape:groupmode="layer"
   id="layer2"
   inkscape:label="railwai grand"
   style="display:inline"
   transform="translate(-232.60001,-423.1)"><g
     id="g190">
		<path
   class="st1"
   d="m 321.6,527.1 h -10.5 l -25.7,-47.4 h -21.5 v 47.4 h -9.4 v -104 h 36.2 c 15.8,0 28.6,12.8 28.6,28.7 0,14.1 -10.5,25.7 -24.3,27.5 z m -31.2,-55.4 c 11.2,0 20.2,-9 20.2,-20.2 0,-11.1 -9.1,-20.1 -20.2,-20.1 h -26.5 v 40.4 h 26.5 z"
   id="path165" />
		<path
   class="st1"
   d="m 401.8,504.5 h -55.9 l -8.7,22.6 h -10.3 l 41.8,-104 H 379 l 41.8,104 h -10.3 z m -3.2,-8.1 -24.8,-63.5 -24.7,63.5 z"
   id="path167" />
		<path
   class="st1"
   d="m 435.1,423.1 h 9.4 v 104 h -9.4 z"
   id="path169" />
		<path
   class="st1"
   d="m 466.7,423.1 h 9.4 v 95.6 h 39.2 v 8.5 H 466.6 V 423.1 Z"
   id="path171" />
		<g
   id="g182">
			
				<linearGradient
   id="SVGID_1_"
   gradientUnits="userSpaceOnUse"
   x1="615.8396"
   y1="244.5495"
   x2="558.23181"
   y2="305.32251"
   gradientTransform="matrix(1,0,0,-1,0,759.8898)">
				<stop
   offset="0"
   style="stop-color:#E5342A"
   id="stop173" />
				<stop
   offset="0.4924"
   style="stop-color:#E84F1C"
   id="stop175" />
				<stop
   offset="1"
   style="stop-color:#F29102"
   id="stop177" />
			</linearGradient>
			<path
   class="st2"
   d="m 597.2,528.2 h -8.9 L 574.7,496 561.2,528.2 h -8.9 l -33,-77.8 h 9.8 L 556.8,516 570,484.9 555.4,450.4 h 9.5 l 27.6,65.6 27.6,-65.6 h 9.8 z"
   id="path180"
   style="fill:url(#SVGID_1_)" />
		</g>
		<g
   id="g186">
			<polygon
   class="st3"
   points="637,504.5 692.9,504.5 701.6,527.1 711.9,527.1 670.1,423.1 665.5,434.5 689.7,496.4 640.3,496.4 "
   id="polygon184" />
		</g>
		<path
   class="st3"
   d="m 726.2,423.1 h 9.4 v 104 h -9.4 z"
   id="path188" />
	</g></g><g
   inkscape:groupmode="layer"
   id="layer1"
   inkscape:label="logo"
   transform="translate(-232.60001,-423.1)"
   style="display:none"><g
     id="g212">
		
			<linearGradient
   id="SVGID_2_"
   gradientUnits="userSpaceOnUse"
   x1="431.034"
   y1="635.34497"
   x2="661.82703"
   y2="404.55179"
   gradientTransform="matrix(1,0,0,-1,0,759.8898)">
			<stop
   offset="0"
   style="stop-color:#E5342A"
   id="stop194" />
			<stop
   offset="0.3743"
   style="stop-color:#E84F1C"
   id="stop196" />
			<stop
   offset="1"
   style="stop-color:#F29102"
   id="stop198" />
		</linearGradient>
		<path
   class="st5"
   d="m 620,273 v 0 c -0.2,-0.7 -0.5,-1.3 -0.9,-1.7 l 12.6,-31.6 -3.7,-5.9 c 2,-1.6 3.3,-4 3.3,-6.8 0,-2.4 -1,-4.6 -2.6,-6.1 l 2.8,-4.6 -22.5,-67 -19.5,-4.1 c -0.1,-1.3 -1,-2.5 -2.2,-2.9 l 1.2,-17 -44.9,-22.6 -8.6,-0.4 c -0.5,-2.2 -2.4,-3.9 -4.8,-3.9 -2.1,0 -3.9,1.3 -4.6,3.2 l -11.7,-1.2 -3.4,4.3 c -0.1,0 -0.2,0 -0.3,0 -1.9,0 -3.3,1.5 -3.3,3.3 0,0.1 0,0.2 0,0.3 l -8.1,7.2 v 32.8 c -3.2,0.5 -5.6,3.2 -5.6,6.5 0,3.3 2.4,6 5.6,6.5 v 13.2 c -1.4,0.4 -2.4,1.7 -2.4,3.2 0,1.5 1,2.8 2.4,3.2 v 28.7 c -1.4,0.4 -2.4,1.7 -2.4,3.2 0,1.5 1,2.8 2.4,3.2 v 33.6 c -2.5,0.6 -4.3,2.8 -4.3,5.5 0,2.6 1.8,4.9 4.3,5.5 v 45.8 c -1.4,0.4 -2.4,1.7 -2.4,3.2 0,1.5 1,2.8 2.4,3.2 v 18.7 c -1.4,0.4 -2.4,1.7 -2.4,3.2 0,1.9 1.5,3.3 3.3,3.3 0.3,0 0.5,0 0.8,-0.1 l 11.7,20.3 c -0.6,0.6 -0.9,1.4 -0.9,2.3 0,0.3 0,0.5 0.1,0.8 v 0.1 c 0.4,1.4 1.7,2.4 3.2,2.4 1.5,0 2.8,-1 3.2,-2.4 h 26.1 l 19.9,-10.3 -5.7,-11.5 c 0.2,0 0.3,-0.1 0.5,-0.1 l 0.3,-0.1 c 1.1,-0.5 1.9,-1.6 2,-2.9 l 15.5,-7.1 24.9,-31 -3.2,-5.8 c 1.7,-1.3 2.9,-3.3 2.9,-5.6 0,-1 -0.2,-1.9 -0.6,-2.8 l 13.9,-8 c 0.6,0.5 1.3,0.8 2.1,0.8 1.8,0 3.3,-1.5 3.3,-3.3 0.3,-0.3 0.2,-0.5 0.3,-0.7 z m -30.7,-125.9 18.5,3.9 21.8,65.2 -2.3,3.7 c -1.3,-0.8 -2.9,-1.3 -4.6,-1.3 -0.9,0 -1.7,0.2 -2.5,0.4 l -31.8,-70.9 c 0.4,-0.3 0.7,-0.7 0.9,-1 z m 29.3,72.5 c -0.9,0.5 -1.7,1.1 -2.3,1.9 L 577,191.8 c 1.5,-2.3 2.4,-5 2.4,-7.9 0,-5.1 -2.7,-9.5 -6.7,-12 l 6.7,-12.1 6.2,-11.1 c 0.2,0.1 0.5,0.1 0.8,0.1 0.2,0 0.3,0 0.5,-0.1 z m -95.2,114.5 c -0.3,-2 -1.7,-3.6 -3.6,-4.2 l 6,-39.6 v 0 c 0.7,0 1.4,-0.1 2,-0.4 l 27.6,44.1 c -0.5,0.5 -0.8,1 -0.9,1.7 z m -2.3,-46.2 -19.5,18.8 c -0.2,-0.1 -0.5,-0.2 -0.8,-0.3 v -45.7 c 0.8,-0.1 1.5,-0.3 2.2,-0.7 l 15.4,17.7 2.7,3.1 c -0.7,1 -1.2,2.2 -1.2,3.5 0.1,1.5 0.5,2.7 1.2,3.6 z M 504.5,259 c 0.9,-1 1.5,-2.3 1.5,-3.8 0,-2.9 -2.3,-5.3 -5.2,-5.6 v -33.4 c 0.8,-0.2 1.5,-0.8 2,-1.5 l 48.6,12.5 c 0,0.2 -0.1,0.4 -0.1,0.6 0,2.3 1.1,4.3 2.8,5.5 L 528,279 c -0.7,-0.3 -1.4,-0.4 -2.2,-0.4 -1.2,0 -2.4,0.4 -3.3,1.1 z m 1.3,-101.2 19,6 c 0,0 0,0.1 0,0.1 0,0.2 0,0.4 0.1,0.6 l -22.5,11.1 c -0.4,-0.5 -1,-0.8 -1.6,-1 v -13.2 c 2.2,-0.3 4.1,-1.7 5,-3.6 z m 25.7,6 25.8,-8.2 26.1,-8.3 c 0.1,0.2 0.3,0.4 0.4,0.5 l -5,8.9 -7.9,14.3 c -1.8,-0.9 -3.8,-1.3 -6,-1.3 -5.1,0 -9.5,2.7 -12.1,6.7 l -18.2,-9.9 -3.4,-1.8 c 0.3,-0.3 0.4,-0.5 0.3,-0.9 0.1,0.1 0,0 0,0 z m 33.5,63.3 c -0.3,-2.8 -2.2,-5 -4.7,-5.8 l 3.5,-23.1 c 0.5,0 0.9,0.1 1.3,0.1 4.3,0 8.1,-1.9 10.7,-4.9 l 20.2,15.2 19.3,14.5 c -0.7,1.2 -1,2.6 -1,4 z m -28.1,-57.4 15.2,8.3 c -0.8,1.8 -1.3,3.8 -1.3,5.9 0,6.8 4.7,12.4 11.1,13.9 l -3.5,23.1 c -0.1,0 -0.2,0 -0.2,0 -0.7,0 -1.4,0.1 -2,0.3 l -14.6,-31.1 -11.2,-23.8 c 0.1,-0.1 0.1,-0.1 0.2,-0.2 z m 2.9,20.9 14.8,31.4 c -1.2,0.8 -2.2,2 -2.7,3.3 l -48.6,-12.5 c 0,-1.5 -1,-2.7 -2.4,-3.1 V 181 c 1.4,-0.4 2.4,-1.7 2.4,-3.2 0,-0.2 0,-0.4 -0.1,-0.6 l 22.5,-11.1 c 0.6,0.7 1.5,1.1 2.5,1.1 0.2,0 0.4,0 0.5,-0.1 z M 529.4,289 c 1.3,-1.1 2.2,-2.7 2.2,-4.6 0,-0.6 -0.1,-1.2 -0.3,-1.8 L 556,268.5 c 0.4,0.4 0.9,0.7 1.4,0.8 V 333 c -0.1,0 -0.2,0 -0.3,0.1 z m 25.8,-24.2 -0.2,0.5 c -0.1,0.3 -0.1,0.5 -0.1,0.8 0,0.3 0,0.5 0.1,0.8 L 530.5,281 c -0.3,-0.4 -0.6,-0.7 -1,-1 l 26.3,-45.8 c 0.5,0.2 1,0.3 1.6,0.4 V 263 c -1,0.1 -1.8,0.9 -2.2,1.8 z m 4,-30.3 c 2.9,-0.4 5.2,-2.7 5.7,-5.6 h 49.5 c 0.2,0.9 0.6,1.8 1.1,2.6 l -54.8,32.1 c -0.4,-0.4 -0.9,-0.6 -1.4,-0.8 v -28.3 z m -24,-130.3 8.3,0.4 43.3,21.9 -1.1,15.8 c -0.5,0.1 -0.9,0.3 -1.3,0.6 l -26.4,-20 -23,-17.5 c 0,-0.4 0.1,-0.8 0.2,-1.2 z m -20.3,-1.8 10.6,1.1 c 0.1,2.6 2.2,4.8 4.9,4.8 1.3,0 2.5,-0.5 3.4,-1.4 l 21.8,16.5 27.6,20.9 c -0.2,0.4 -0.2,0.8 -0.2,1.2 0,0 0,0.1 0,0.1 l -27.1,8.6 -24.9,7.9 c -0.6,-0.9 -1.6,-1.5 -2.8,-1.5 0,0 0,0 -0.1,0 l -11,-35.5 -4.5,-14.4 c 0.7,-0.6 1.2,-1.5 1.2,-2.5 0,-1.1 -0.5,-2 -1.3,-2.6 z m -7.1,7.8 c 0.6,0.8 1.5,1.3 2.6,1.3 0.2,0 0.4,0 0.5,-0.1 l 4.3,13.8 11.2,35.9 c -0.4,0.2 -0.7,0.6 -1,1 l -19,-6 c 0.1,-0.4 0.1,-0.8 0.1,-1.2 0,-3.3 -2.5,-6.1 -5.7,-6.5 v -32 z m -6.9,221.3 v -18.7 c 1.4,-0.4 2.4,-1.7 2.4,-3.2 0,-0.6 -0.2,-1.1 -0.4,-1.6 l 18.8,-18.1 0.8,-0.8 c 0.5,0.3 1,0.6 1.6,0.8 l -0.8,5.6 -5.2,34.2 c -2.4,0.1 -4.3,1.8 -4.8,4.1 h -10.1 c -0.4,-1.1 -1.2,-2 -2.3,-2.3 z m 16.2,26.6 c -0.6,-0.6 -1.4,-0.9 -2.3,-0.9 -0.3,0 -0.6,0 -0.9,0.1 L 502.3,337 c 0.4,-0.4 0.6,-0.8 0.8,-1.3 l 10.2,0.4 c 0.6,2.2 2.6,3.9 5,3.9 2.3,0 4.2,-1.5 4.9,-3.6 l 29.6,1.1 z m 44.6,-7.8 -17.9,9.3 h -25.5 l 37,-21.3 c 0.3,0.4 0.6,0.7 1,0.9 z m 37.7,-52.2 -23.9,29.7 -14.8,6.8 c -0.3,-0.6 -0.9,-1.1 -1.5,-1.4 v -64 c 0.5,-0.1 1,-0.4 1.4,-0.8 l 27.1,15.7 c -0.3,0.8 -0.5,1.8 -0.5,2.7 0,3.9 3.1,7 7,7 0.9,0 1.8,-0.2 2.5,-0.5 z m 0.3,-15.5 c -1.3,-1.6 -3.2,-2.7 -5.5,-2.7 -2.2,0 -4.2,1.1 -5.5,2.7 l -26,-15.1 50.6,6.5 c 0,0.2 0.1,0.4 0.2,0.6 z m 17.8,-12.2 c -0.3,-0.1 -0.5,-0.1 -0.8,-0.1 -1.3,0 -2.5,0.8 -3,2 l -52,-6.6 c 0,-0.1 0,-0.2 -0.1,-0.3 l 55,-32.3 c 1.6,1.6 3.8,2.7 6.2,2.7 1.3,0 2.5,-0.3 3.7,-0.9 l 3.2,5.1 z"
   id="path201"
   style="fill:url(#SVGID_2_)" />
		
			<linearGradient
   id="SVGID_3_"
   gradientUnits="userSpaceOnUse"
   x1="342.84021"
   y1="641.36151"
   x2="583.05121"
   y2="401.15051"
   gradientTransform="matrix(1,0,0,-1,0,759.8898)">
			<stop
   offset="0"
   style="stop-color:#E5342A"
   id="stop203" />
			<stop
   offset="0.3807"
   style="stop-color:#E84F1C"
   id="stop205" />
			<stop
   offset="1"
   style="stop-color:#F29102"
   id="stop207" />
		</linearGradient>
		<path
   class="st6"
   d="m 495.5,212.8 c 0,-3.3 -2.5,-6 -5.7,-6.4 V 181 c 1.4,-0.4 2.4,-1.7 2.4,-3.2 0,-1.5 -1,-2.8 -2.4,-3.2 v -16.4 c 1.4,-0.4 2.4,-1.7 2.4,-3.2 0,-1.5 -1,-2.8 -2.4,-3.2 v -36.2 l -8.1,-7.2 c 0,-0.1 0,-0.2 0,-0.3 0,-1.8 -1.5,-3.3 -3.3,-3.3 -0.1,0 -0.2,0 -0.3,0 l -3.4,-4.3 -8.8,0.9 c -0.9,-3.2 -3.7,-5.5 -7.2,-5.5 -3.8,0 -7,2.9 -7.4,6.6 l -6.3,0.3 -44.9,22.6 1,13.3 c -3.6,0.5 -6.4,3.5 -6.4,7.3 0,0.1 0,0.2 0,0.3 l -15,3.2 -22.4,66.9 4.2,6.7 c -1.3,1.2 -2.1,2.9 -2.1,4.8 0,1.9 0.9,3.7 2.2,4.9 l -4.3,6.9 12.6,31.6 c -0.4,0.5 -0.8,1.1 -0.9,1.7 v 0 0 c 0,0.2 0,0.4 0,0.5 0,1.9 1.5,3.3 3.3,3.3 0.8,0 1.5,-0.3 2.1,-0.8 l 15.2,8.7 c -0.2,0.6 -0.4,1.3 -0.4,2 0,1.8 0.9,3.3 2.1,4.3 l -4,7.2 24.9,31 15.5,7.1 c 0,1.3 0.8,2.4 2,2.9 l 0.3,0.1 c 0.2,0 0.3,0.1 0.5,0.1 l -5.6,11.5 19.9,10.3 h 26.1 c 0.4,1.4 1.7,2.4 3.2,2.4 1.5,0 2.8,-1 3.2,-2.4 v -0.1 c 0.1,-0.2 0.1,-0.5 0.1,-0.8 0,-0.9 -0.4,-1.7 -0.9,-2.3 l 11.6,-20.3 c 0.3,0.1 0.5,0.1 0.8,0.1 1.9,0 3.3,-1.5 3.3,-3.3 0,-1.5 -1,-2.8 -2.4,-3.2 v -18.7 c 1.4,-0.4 2.4,-1.7 2.4,-3.2 0,-1.5 -1,-2.8 -2.4,-3.2 v -48.1 c 1.4,-0.4 2.4,-1.7 2.4,-3.2 0,-1.5 -1,-2.8 -2.4,-3.2 V 219 c 3.2,-0.1 5.7,-2.9 5.7,-6.2 z m -13,0 c 0,0.3 0,0.5 0.1,0.8 l -39.5,10.2 c -0.9,-3.3 -3.1,-6.1 -6,-7.6 l 12,-25.5 9.9,-21.1 c 0.5,0.1 1.1,0.3 1.6,0.3 2,0 3.7,-1 4.8,-2.4 l 20.2,9.9 c 0,0.2 -0.1,0.4 -0.1,0.6 0,1.5 1,2.8 2.4,3.2 v 25.4 c -3,0.3 -5.4,3 -5.4,6.2 z m -24.1,77.8 -26.6,42.4 c -0.1,0 -0.2,0 -0.3,-0.1 v -63.7 c 0.5,-0.1 1,-0.4 1.4,-0.8 l 23.1,13.2 c -0.3,0.9 -0.5,1.8 -0.5,2.8 -0.2,2.6 1,4.8 2.9,6.2 z m 1.5,1 c 1,0.5 2.1,0.7 3.3,0.7 0,0 0.1,0 0.2,0 l 4.9,32.3 c -4.4,1.1 -7.7,5 -7.8,9.7 l -26.1,1.3 c -0.1,-0.7 -0.5,-1.2 -0.9,-1.7 z m -3.2,-11.5 -23,-13.2 c 0.1,-0.3 0.1,-0.5 0.1,-0.8 0,-0.3 0,-0.6 -0.1,-0.8 l -0.2,-0.5 c -0.4,-0.9 -1.2,-1.6 -2.2,-1.9 v -23.4 c 1.5,0 2.9,-0.3 4.2,-0.8 l 22.8,39.7 c -0.5,0.5 -1.1,1 -1.6,1.7 z m 9.9,-117.1 19.5,-6.1 c 0.4,0.7 1.1,1.1 1.9,1.4 v 16.4 c -0.6,0.2 -1.1,0.5 -1.6,1 l -20.1,-9.9 c 0.2,-0.6 0.4,-1.3 0.4,-2 -0.1,-0.3 -0.1,-0.6 -0.1,-0.8 z m 11.8,-51.6 c 1,0 2,-0.5 2.6,-1.3 l 7,6.2 v 35.4 c -1.4,0.4 -2.4,1.7 -2.4,3.2 0,0 0,0.1 0,0.1 l -19.5,6.1 c -0.6,-1.2 -1.6,-2.3 -2.8,-2.9 l 10.3,-33.2 4.3,-13.8 c 0.1,0.2 0.3,0.2 0.5,0.2 z m -4.5,-9 2.4,3.1 c -0.8,0.6 -1.3,1.6 -1.3,2.6 0,1 0.5,1.9 1.2,2.5 l -4.5,14.4 -10.2,32.7 c -0.3,0 -0.6,-0.1 -0.9,-0.1 -2.4,0 -4.5,1.4 -5.5,3.5 l -22.2,-7 -23.6,-7.5 c 0,-0.3 0.1,-0.5 0.1,-0.8 0,-1.4 -0.4,-2.6 -1,-3.7 l 24.9,-18.8 20,-15.1 c 1.4,1.6 3.4,2.6 5.6,2.6 4.1,0 7.5,-3.3 7.5,-7.5 0,-0.1 0,-0.1 0,-0.2 z M 372.5,227.1 c -0.1,-0.9 -0.4,-1.8 -0.9,-2.6 l 21.2,-16 29,-21.9 c 0.5,0.3 1,0.6 1.6,0.6 l 4.2,27.8 c -5.2,1.5 -9,6.3 -9,12 z m 50.6,-46.4 -13.3,-23.9 -3,-5.3 c 0.9,-0.8 1.6,-1.8 2.1,-3 l 22.5,7.1 23.3,7.4 c 0,0.2 -0.1,0.5 -0.1,0.7 0,0.8 0.2,1.5 0.4,2.2 l -1.1,0.6 -27.7,15.1 c -0.6,-0.6 -1.5,-1 -2.4,-1 -0.2,0 -0.4,0.1 -0.7,0.1 z m 22.2,-76.1 6,-0.3 c 0.1,0.9 0.4,1.7 0.8,2.4 l -21.2,16.1 -23.7,17.9 c -1.1,-1.1 -2.7,-1.9 -4.4,-2.1 l -0.9,-12.2 z M 402,153.3 c 1.2,0 2.3,-0.3 3.3,-0.8 l 4.1,7.3 12.1,21.8 c -0.6,0.6 -1,1.4 -1,2.4 0,0.4 0.1,0.8 0.2,1.2 l -50.3,37.9 c -0.4,-0.4 -0.9,-0.7 -1.4,-1 L 400,153 c 0.7,0.2 1.4,0.3 2,0.3 z m -42.8,62.9 21.8,-65.2 13.9,-3 c 0.5,1.9 1.8,3.4 3.4,4.3 l -31,69.1 c -0.5,-0.1 -1,-0.2 -1.5,-0.2 -1.1,0 -2.1,0.3 -3.1,0.8 z m 13,54.1 c -0.3,0 -0.6,0 -0.8,0.1 l -12.1,-30.4 3.8,-6.1 c 0.9,0.4 1.9,0.7 3,0.7 2,0 3.8,-0.9 5,-2.3 l 56.3,33 c 0,0.1 0,0.2 -0.1,0.3 l -52,6.6 c -0.6,-1.1 -1.8,-1.9 -3.1,-1.9 z m 3.2,4.4 c 0.1,-0.2 0.1,-0.4 0.1,-0.6 l 50.6,-6.5 -27.5,16 c -1,-1.2 -2.5,-2 -4.2,-2 -1.6,0 -3,0.7 -4,1.8 z m 54.2,58.6 c -0.6,0.3 -1.2,0.8 -1.5,1.4 l -14.8,-6.8 -23.9,-29.7 3.5,-6.2 c 0.5,0.2 1,0.3 1.6,0.3 3,0 5.4,-2.4 5.4,-5.4 0,-0.6 -0.1,-1.2 -0.3,-1.8 l 28.7,-16.6 c 0.4,0.4 0.9,0.6 1.4,0.8 z m 0,-70.4 c -0.5,0.1 -1,0.4 -1.4,0.8 l -55.5,-32.5 -0.7,-0.4 c 0.3,-0.6 0.4,-1.2 0.5,-1.8 h 46.3 c 0.8,5.5 5.2,9.9 10.8,10.5 z m -0.2,-48.1 -4.2,-27.7 c 1.2,-0.5 2,-1.7 2,-3 0,-0.3 0,-0.5 -0.1,-0.7 l 24.8,-13.5 4.1,-2.2 c 0.4,0.5 0.8,0.9 1.3,1.2 l -10.1,21.5 -11.8,25.2 c -1.3,-0.5 -2.8,-0.8 -4.3,-0.8 -0.6,-0.2 -1.1,-0.1 -1.7,0 z m 15.7,144.8 -17.9,-9.3 5.4,-11.1 c 0.4,-0.2 0.8,-0.5 1,-0.9 l 37,21.3 z m 29.8,-2.3 c -0.3,-0.1 -0.6,-0.1 -0.9,-0.1 -0.9,0 -1.7,0.4 -2.3,0.9 l -35.7,-20.5 24.5,-0.9 c 0.9,4.7 5.1,8.3 10.1,8.3 5.3,0 9.5,-4 10.2,-9 l 4.9,-0.2 c 0.2,0.5 0.4,0.9 0.8,1.3 z M 488,331.5 c -1.1,0.3 -2,1.2 -2.3,2.3 h -4.8 c -0.4,-5.3 -4.8,-9.5 -10.2,-9.5 -0.2,0 -0.4,0 -0.6,0.1 l -4.4,-28.9 -0.5,-3.5 c 1,-0.3 2,-0.7 2.8,-1.4 l 18,17.4 c -0.2,0.5 -0.4,1 -0.4,1.6 0,1.5 1,2.8 2.4,3.2 z m 0,-25.1 c -0.3,0.1 -0.5,0.2 -0.8,0.3 l -18,-17.3 c 1.1,-1.3 1.8,-3 1.8,-4.9 0,-2 -0.8,-3.8 -2,-5.1 l 1.3,-1.5 17.1,-19.7 c 0.2,0.1 0.3,0.1 0.5,0.2 z m -2.5,-51.3 c 0,0.7 0.2,1.3 0.5,1.8 l -18.4,21.2 c -1.3,-0.9 -2.8,-1.4 -4.5,-1.4 -1.2,0 -2.2,0.3 -3.2,0.7 l -22.7,-39.5 c 3.8,-2.1 6.3,-6.2 6.3,-10.8 0,-0.5 0,-1 -0.1,-1.5 l 39.5,-10.2 c 0.9,2 2.7,3.5 5,3.8 v 32.7 c -1.3,0.4 -2.4,1.7 -2.4,3.2 z"
   id="path210"
   style="fill:url(#SVGID_3_)" />
	</g></g></svg>
